<svg width="107" height="362" viewBox="0 0 107 362" fill="none" xmlns="http://www.w3.org/2000/svg">
<path d="M98 361L5.98317 361C4.3329 361 2.9925 359.667 2.98321 358.017L1.01654 8.44104C1.00735 6.8075 2.30684 5.46686 3.93988 5.42514L97.9234 3.02454C99.6097 2.98148 101 4.3367 101 6.02356L101 358C101 359.657 99.6569 361 98 361Z" stroke="url(#paint0_linear_282_10815)" stroke-width="2"/>
<path d="M42.6411 5.71095L45.8996 1.46623C46.2781 0.973131 46.8644 0.684082 47.486 0.684085L104.5 0.684241C105.605 0.684244 106.5 1.57967 106.5 2.68424L106.5 37.9867C106.5 38.6703 106.151 39.3066 105.574 39.6737L99.0206 43.847C97.8194 44.6119 96.2263 43.912 95.9772 42.5099L91.2596 15.961C91.1054 15.0934 90.4015 14.4289 89.5264 14.3249L43.9915 8.91484C42.4513 8.73184 41.6966 6.94128 42.6411 5.71095Z" fill="#D84860" stroke="black"/>
<defs>
<linearGradient id="paint0_linear_282_10815" x1="101" y1="-23.2984" x2="-34.2451" y2="-9.71037" gradientUnits="userSpaceOnUse">
<stop stop-color="#D8485F"/>
<stop offset="1" stop-color="#B42BD8"/>
</linearGradient>
</defs>
</svg>
