<svg width="1792" height="1978" viewBox="0 0 1792 1978" fill="none" xmlns="http://www.w3.org/2000/svg">
<g clip-path="url(#clip0_5_555)">
<path d="M0 240.657L19.9111 243.953C39.8222 247.25 79.6444 253.843 119.467 267.03C159.289 280.217 199.111 299.997 238.933 303.293C278.756 306.59 318.578 293.403 358.4 253.843C398.222 214.283 438.044 148.35 477.867 131.867C517.689 115.383 557.511 148.35 597.333 174.723C637.156 201.097 676.978 220.877 716.8 230.767C756.622 240.657 796.444 240.657 836.267 257.14C876.089 273.623 915.911 306.59 955.733 309.887C995.556 313.183 1035.38 286.81 1075.2 243.953C1115.02 201.097 1154.84 141.757 1194.67 125.273C1234.49 108.79 1274.31 135.163 1314.13 151.647C1353.96 168.13 1393.78 174.723 1433.6 184.613C1473.42 194.503 1513.24 207.69 1553.07 220.877C1592.89 234.063 1632.71 247.25 1672.53 247.25C1712.36 247.25 1752.18 234.063 1772.09 227.47L1792 220.877V56.0433L1772.09 82.4166C1752.18 108.79 1712.36 161.537 1672.53 171.427C1632.71 181.317 1592.89 148.35 1553.07 138.46C1513.24 128.57 1473.42 141.757 1433.6 122.636C1393.78 103.186 1353.96 51.7576 1314.13 31.9776C1274.31 12.1976 1234.49 24.0656 1194.67 53.406C1154.84 82.4166 1115.02 128.57 1075.2 158.24C1035.38 187.91 995.556 201.097 955.733 201.097C915.911 201.097 876.089 187.91 836.267 191.207C796.444 194.503 756.622 214.283 716.8 214.283C676.978 214.283 637.156 194.503 597.333 161.537C557.511 128.57 517.689 82.4166 477.867 92.3066C438.044 102.197 398.222 168.13 358.4 181.317C318.578 194.503 278.756 154.943 238.933 145.053C199.111 135.163 159.289 154.943 119.467 151.647C79.6444 148.35 39.8222 121.977 19.9111 108.79L0 95.6033V240.657Z" fill="#2E0448"/>
<path d="M0 102.197L19.9111 115.383C39.8222 128.57 79.6444 154.943 119.467 158.24C159.289 161.537 199.111 141.757 238.933 151.647C278.756 161.537 318.578 201.097 358.4 187.91C398.222 174.723 438.044 108.79 477.867 98.9C517.689 89.01 557.511 135.163 597.333 168.13C637.156 201.097 676.978 220.877 716.8 220.877C756.622 220.877 796.444 201.097 836.267 197.8C876.089 194.503 915.911 207.69 955.733 207.69C995.556 207.69 1035.38 194.503 1075.2 164.833C1115.02 135.163 1154.84 89.01 1194.67 58.6807C1234.49 28.681 1274.31 14.1757 1314.13 33.9557C1353.96 53.7357 1393.78 107.801 1433.6 127.911C1473.42 148.35 1513.24 135.163 1553.07 145.053C1592.89 154.943 1632.71 187.91 1672.53 178.02C1712.36 168.13 1752.18 115.383 1772.09 89.01L1792 62.6367V0H1772.09C1752.18 0 1712.36 0 1672.53 0C1632.71 0 1592.89 0 1553.07 0C1513.24 0 1473.42 0 1433.6 0C1393.78 0 1353.96 0 1314.13 0C1274.31 0 1234.49 0 1194.67 0C1154.84 0 1115.02 0 1075.2 0C1035.38 0 995.556 0 955.733 0C915.911 0 876.089 0 836.267 0C796.444 0 756.622 0 716.8 0C676.978 0 637.156 0 597.333 0C557.511 0 517.689 0 477.867 0C438.044 0 398.222 0 358.4 0C318.578 0 278.756 0 238.933 0C199.111 0 159.289 0 119.467 0C79.6444 0 39.8222 0 19.9111 0H0V102.197Z" fill="#31034E"/>
<path d="M0 438.457L19.9111 431.863C39.8222 425.27 79.6444 412.083 119.467 412.083C159.289 412.083 199.111 425.27 238.933 445.05C278.756 464.83 318.578 491.203 358.4 471.423C398.222 451.643 438.044 385.71 477.867 336.26C517.689 286.81 557.511 253.843 597.333 280.217C637.156 306.59 676.978 392.303 716.8 398.897C756.622 405.49 796.444 332.963 836.267 349.447C876.089 365.93 915.911 471.423 955.733 481.313C995.556 491.203 1035.38 405.49 1075.2 359.337C1115.02 313.183 1154.84 306.59 1194.67 296.7C1234.49 286.81 1274.31 273.623 1314.13 260.437C1353.96 247.25 1393.78 234.063 1433.6 243.953C1473.42 253.843 1513.24 286.81 1553.07 309.887C1592.89 332.963 1632.71 346.15 1672.53 372.523C1712.36 398.897 1752.18 438.457 1772.09 458.237L1792 478.017V214.283L1772.09 220.877C1752.18 227.47 1712.36 240.657 1672.53 240.657C1632.71 240.657 1592.89 227.47 1553.07 214.283C1513.24 201.097 1473.42 187.91 1433.6 178.02C1393.78 168.13 1353.96 161.537 1314.13 145.053C1274.31 128.57 1234.49 102.197 1194.67 118.68C1154.84 135.163 1115.02 194.503 1075.2 237.36C1035.38 280.217 995.556 306.59 955.733 303.293C915.911 299.997 876.089 267.03 836.267 250.547C796.444 234.063 756.622 234.063 716.8 224.173C676.978 214.283 637.156 194.503 597.333 168.13C557.511 141.757 517.689 108.79 477.867 125.273C438.044 141.757 398.222 207.69 358.4 247.25C318.578 286.81 278.756 299.997 238.933 296.7C199.111 293.403 159.289 273.623 119.467 260.437C79.6444 247.25 39.8222 240.657 19.9111 237.36L0 234.063V438.457Z" fill="#2B0541"/>
<path d="M0 735.25L19.9111 689.096C39.8222 642.943 79.6444 550.636 119.467 537.45C159.289 524.263 199.111 590.196 238.933 652.833C278.756 715.47 318.578 774.81 358.4 768.216C398.222 761.623 438.044 689.096 477.867 613.273C517.689 537.45 557.511 458.33 597.333 438.55C637.156 418.77 676.978 458.33 716.8 458.33C756.622 458.33 796.444 418.77 836.267 431.956C876.089 445.143 915.911 511.076 955.733 507.78C995.556 504.483 1035.38 431.956 1075.2 438.55C1115.02 445.143 1154.84 530.856 1194.67 544.043C1234.49 557.23 1274.31 497.89 1314.13 445.143C1353.96 392.396 1393.78 346.243 1433.6 366.023C1473.42 385.803 1513.24 471.516 1553.07 530.856C1592.89 590.196 1632.71 623.163 1672.53 619.866C1712.36 616.57 1752.18 577.01 1772.09 557.23L1792 537.45V471.516L1772.09 451.736C1752.18 431.956 1712.36 392.396 1672.53 366.023C1632.71 339.65 1592.89 326.463 1553.07 303.386C1513.24 280.31 1473.42 247.343 1433.6 237.453C1393.78 227.563 1353.96 240.75 1314.13 253.936C1274.31 267.123 1234.49 280.31 1194.67 290.2C1154.84 300.09 1115.02 306.683 1075.2 352.836C1035.38 398.99 995.556 484.703 955.733 474.813C915.911 464.923 876.089 359.43 836.267 342.946C796.444 326.463 756.622 398.99 716.8 392.396C676.978 385.803 637.156 300.09 597.333 273.716C557.511 247.343 517.689 280.31 477.867 329.76C438.044 379.21 398.222 445.143 358.4 464.923C318.578 484.703 278.756 458.33 238.933 438.55C199.111 418.77 159.289 405.583 119.467 405.583C79.6444 405.583 39.8222 418.77 19.9111 425.363L0 431.956V735.25Z" fill="#27063B"/>
<path d="M0 952.737L19.9111 903.287C39.8222 853.837 79.6444 754.937 119.467 768.123C159.289 781.31 199.111 906.583 238.933 952.737C278.756 998.89 318.578 965.923 358.4 919.77C398.222 873.617 438.044 814.277 477.867 751.64C517.689 689.003 557.511 623.07 597.333 652.74C637.156 682.41 676.978 807.683 716.8 804.387C756.622 801.09 796.444 669.223 836.267 639.553C876.089 609.883 915.911 682.41 955.733 675.817C995.556 669.223 1035.38 583.51 1075.2 593.4C1115.02 603.29 1154.84 708.783 1194.67 715.377C1234.49 721.97 1274.31 629.663 1314.13 580.213C1353.96 530.763 1393.78 524.17 1433.6 580.213C1473.42 636.257 1513.24 754.937 1553.07 817.573C1592.89 880.21 1632.71 886.803 1672.53 870.32C1712.36 853.837 1752.18 814.277 1772.09 794.497L1792 774.717V530.763L1772.09 550.543C1752.18 570.323 1712.36 609.883 1672.53 613.18C1632.71 616.477 1592.89 583.51 1553.07 524.17C1513.24 464.83 1473.42 379.117 1433.6 359.337C1393.78 339.557 1353.96 385.71 1314.13 438.457C1274.31 491.203 1234.49 550.543 1194.67 537.357C1154.84 524.17 1115.02 438.457 1075.2 431.863C1035.38 425.27 995.556 497.797 955.733 501.093C915.911 504.39 876.089 438.457 836.267 425.27C796.444 412.083 756.622 451.643 716.8 451.643C676.978 451.643 637.156 412.083 597.333 431.863C557.511 451.643 517.689 530.763 477.867 606.587C438.044 682.41 398.222 754.937 358.4 761.53C318.578 768.123 278.756 708.783 238.933 646.147C199.111 583.51 159.289 517.577 119.467 530.763C79.6444 543.95 39.8222 636.257 19.9111 682.41L0 728.563V952.737Z" fill="#240635"/>
<path d="M0 1051.64L19.9111 1054.93C39.8222 1058.23 79.6444 1064.82 119.467 1104.38C159.289 1143.94 199.111 1216.47 238.933 1229.66C278.756 1242.84 318.578 1196.69 358.4 1147.24C398.222 1097.79 438.044 1045.04 477.867 992.297C517.689 939.55 557.511 886.803 597.333 896.693C637.156 906.583 676.978 979.11 716.8 998.89C756.622 1018.67 796.444 985.703 836.267 952.737C876.089 919.77 915.911 886.803 955.733 860.43C995.556 834.057 1035.38 814.277 1075.2 873.617C1115.02 932.957 1154.84 1071.42 1194.67 1094.49C1234.49 1117.57 1274.31 1025.26 1314.13 969.22C1353.96 913.177 1393.78 893.397 1433.6 956.033C1473.42 1018.67 1513.24 1163.72 1553.07 1249.44C1592.89 1335.15 1632.71 1361.52 1672.53 1351.63C1712.36 1341.74 1752.18 1295.59 1772.09 1272.51L1792 1249.44V768.123L1772.09 787.903C1752.18 807.683 1712.36 847.243 1672.53 863.727C1632.71 880.21 1592.89 873.617 1553.07 810.98C1513.24 748.343 1473.42 629.663 1433.6 573.62C1393.78 517.577 1353.96 524.17 1314.13 573.62C1274.31 623.07 1234.49 715.377 1194.67 708.783C1154.84 702.19 1115.02 596.697 1075.2 586.807C1035.38 576.917 995.556 662.63 955.733 669.223C915.911 675.817 876.089 603.29 836.267 632.96C796.444 662.63 756.622 794.497 716.8 797.793C676.978 801.09 637.156 675.817 597.333 646.147C557.511 616.477 517.689 682.41 477.867 745.047C438.044 807.683 398.222 867.023 358.4 913.177C318.578 959.33 278.756 992.297 238.933 946.143C199.111 899.99 159.289 774.717 119.467 761.53C79.6444 748.343 39.8222 847.243 19.9111 896.693L0 946.143V1051.64Z" fill="#21052F"/>
<path d="M0 1803.28L19.9111 1694.49C39.8222 1585.7 79.6444 1368.12 119.467 1335.15C159.289 1302.18 199.111 1453.83 238.933 1483.5C278.756 1513.17 318.578 1420.86 358.4 1410.97C398.222 1401.08 438.044 1473.61 477.867 1532.95C517.689 1592.29 557.511 1638.44 597.333 1562.62C637.156 1486.8 676.978 1289 716.8 1292.29C756.622 1295.59 796.444 1499.98 836.267 1490.09C876.089 1480.2 915.911 1256.03 955.733 1117.57C995.556 979.11 1035.38 926.363 1075.2 979.11C1115.02 1031.86 1154.84 1190.1 1194.67 1252.73C1234.49 1315.37 1274.31 1282.4 1314.13 1232.95C1353.96 1183.5 1393.78 1117.57 1433.6 1170.32C1473.42 1223.06 1513.24 1394.49 1553.07 1529.65C1592.89 1664.82 1632.71 1763.72 1672.53 1750.53C1712.36 1737.34 1752.18 1612.07 1772.09 1549.43L1792 1486.8V1242.84L1772.09 1265.92C1752.18 1289 1712.36 1335.15 1672.53 1345.04C1632.71 1354.93 1592.89 1328.56 1553.07 1242.84C1513.24 1157.13 1473.42 1012.08 1433.6 949.44C1393.78 886.803 1353.96 906.583 1314.13 962.627C1274.31 1018.67 1234.49 1110.98 1194.67 1087.9C1154.84 1064.82 1115.02 926.363 1075.2 867.023C1035.38 807.683 995.556 827.463 955.733 853.837C915.911 880.21 876.089 913.177 836.267 946.143C796.444 979.11 756.622 1012.08 716.8 992.297C676.978 972.517 637.156 899.99 597.333 890.1C557.511 880.21 517.689 932.957 477.867 985.703C438.044 1038.45 398.222 1091.2 358.4 1140.65C318.578 1190.1 278.756 1236.25 238.933 1223.06C199.111 1209.88 159.289 1137.35 119.467 1097.79C79.6444 1058.23 39.8222 1051.64 19.9111 1048.34L0 1045.04V1803.28Z" fill="#1E0429"/>
<path d="M0 1921.96L19.9111 1902.18C39.8222 1882.4 79.6444 1842.84 119.467 1842.84C159.289 1842.84 199.111 1882.4 238.933 1912.07C278.756 1941.74 318.578 1961.52 358.4 1958.22C398.222 1954.92 438.044 1928.55 477.867 1908.77C517.689 1888.99 557.511 1875.8 597.333 1882.4C637.156 1888.99 676.978 1915.36 716.8 1918.66C756.622 1921.96 796.444 1902.18 836.267 1872.51C876.089 1842.84 915.911 1803.28 955.733 1790.09C995.556 1776.9 1035.38 1790.09 1075.2 1783.5C1115.02 1776.9 1154.84 1750.53 1194.67 1730.75C1234.49 1710.97 1274.31 1697.78 1314.13 1704.38C1353.96 1710.97 1393.78 1737.34 1433.6 1786.79C1473.42 1836.24 1513.24 1908.77 1553.07 1945.03C1592.89 1981.3 1632.71 1981.3 1672.53 1968.11C1712.36 1954.92 1752.18 1928.55 1772.09 1915.36L1792 1902.18V1480.2L1772.09 1542.84C1752.18 1605.48 1712.36 1730.75 1672.53 1743.94C1632.71 1757.12 1592.89 1658.22 1553.07 1523.06C1513.24 1387.9 1473.42 1216.47 1433.6 1163.72C1393.78 1110.98 1353.96 1176.91 1314.13 1226.36C1274.31 1275.81 1234.49 1308.78 1194.67 1246.14C1154.84 1183.5 1115.02 1025.26 1075.2 972.517C1035.38 919.77 995.556 972.517 955.733 1110.98C915.911 1249.44 876.089 1473.61 836.267 1483.5C796.444 1493.39 756.622 1289 716.8 1285.7C676.978 1282.4 637.156 1480.2 597.333 1556.03C557.511 1631.85 517.689 1585.7 477.867 1526.36C438.044 1467.02 398.222 1394.49 358.4 1404.38C318.578 1414.27 278.756 1506.58 238.933 1476.91C199.111 1447.24 159.289 1295.59 119.467 1328.56C79.6444 1361.52 39.8222 1579.1 19.9111 1687.89L0 1796.68V1921.96Z" fill="#1C0223"/>
<path d="M0 1981.3H19.9111C39.8222 1981.3 79.6444 1981.3 119.467 1981.3C159.289 1981.3 199.111 1981.3 238.933 1981.3C278.756 1981.3 318.578 1981.3 358.4 1981.3C398.222 1981.3 438.044 1981.3 477.867 1981.3C517.689 1981.3 557.511 1981.3 597.333 1981.3C637.156 1981.3 676.978 1981.3 716.8 1981.3C756.622 1981.3 796.444 1981.3 836.267 1981.3C876.089 1981.3 915.911 1981.3 955.733 1981.3C995.556 1981.3 1035.38 1981.3 1075.2 1981.3C1115.02 1981.3 1154.84 1981.3 1194.67 1981.3C1234.49 1981.3 1274.31 1981.3 1314.13 1981.3C1353.96 1981.3 1393.78 1981.3 1433.6 1981.3C1473.42 1981.3 1513.24 1981.3 1553.07 1981.3C1592.89 1981.3 1632.71 1981.3 1672.53 1981.3C1712.36 1981.3 1752.18 1981.3 1772.09 1981.3H1792V1895.58L1772.09 1908.77C1752.18 1921.96 1712.36 1948.33 1672.53 1961.52C1632.71 1974.7 1592.89 1974.7 1553.07 1938.44C1513.24 1902.18 1473.42 1829.65 1433.6 1780.2C1393.78 1730.75 1353.96 1704.38 1314.13 1697.78C1274.31 1691.19 1234.49 1704.38 1194.67 1724.16C1154.84 1743.94 1115.02 1770.31 1075.2 1776.9C1035.38 1783.5 995.556 1770.31 955.733 1783.5C915.911 1796.68 876.089 1836.24 836.267 1865.91C796.444 1895.58 756.622 1915.36 716.8 1912.07C676.978 1908.77 637.156 1882.4 597.333 1875.8C557.511 1869.21 517.689 1882.4 477.867 1902.18C438.044 1921.96 398.222 1948.33 358.4 1951.63C318.578 1954.92 278.756 1935.14 238.933 1905.47C199.111 1875.8 159.289 1836.24 119.467 1836.24C79.6444 1836.24 39.8222 1875.8 19.9111 1895.58L0 1915.36V1981.3Z" fill="#19001E"/>
<path d="M575.307 27.5H197.001H79L17 79L15.5 305.216H-3V-1H1797.7V1968L-3.00002 1980V308.5H7.49998V462.5L64.5 540.5V879L20 948.5V1702L177 1950.8H426.833H487.084H633.944H713.022H1117.02H1233.22H1382.77H1455.39H1718L1775.5 1865.5L1782.5 1463.5C1763.13 1441.3 1723.5 1385.04 1723.5 1372.5C1723.5 1359.96 1720 1080.5 1720 929L1779.5 846V64.5L1728.5 24.8771L575.307 27.5Z" fill="#120B0B" fill-opacity="0.9"/>
<path d="M15.5 305.216H-29.3473H-3V-1H1797.7V1968L-3.00002 1980V308.5H7.49998V462.5L64.5 540.5V879L20 948.5V1702L177 1950.8H426.833H487.084H633.944H713.022H1117.02H1233.22H1382.77H1455.39H1718L1775.5 1865.5L1782.5 1463.5C1763.13 1441.3 1723.5 1385.04 1723.5 1372.5C1723.5 1359.96 1720 1080.5 1720 929L1779.5 846V64.5L1728.5 24.8771L575.307 27.5H197.001H79L17 79L15.5 305.216Z" stroke="black" stroke-opacity="0.5"/>
<path d="M1719.39 1954L176.064 1957L15.6965 1701V945L56 880.5V543.5L9.5 459.377L11.7078 285.984V78.5L79.5 21H187.233H523.285H579.526H1726.29L1786.01 64V847.347L1726.29 934.754V1373.08L1787 1461.94L1779.53 1865.98L1719.39 1954ZM176.064 1943.05H1716.29L1772.05 1861.44L1779.53 1466.48L1718.82 1377.61V930.22L1778.54 842.813V71L1723.2 31.9468H576.429L520.187 31.9481H190.331L87.5 31.9468L22 87.5V292L22 456L68.2219 537.906V880.5L27.5 945V1701L176.064 1943.05Z" fill="url(#paint0_linear_5_555)"/>
</g>
<defs>
<linearGradient id="paint0_linear_5_555" x1="895.5" y1="21.0001" x2="895.5" y2="1876.6" gradientUnits="userSpaceOnUse">
<stop stop-color="#E14F3E"/>
<stop offset="1" stop-color="#B42BD8"/>
</linearGradient>
<clipPath id="clip0_5_555">
<rect width="1792" height="1978" fill="white"/>
</clipPath>
</defs>
</svg>
