<svg id="Layer_1" data-name="Layer 1" xmlns="http://www.w3.org/2000/svg" xmlns:xlink="http://www.w3.org/1999/xlink" width="417.0544" height="198.5375" viewBox="0 0 417.0544 198.5375"><defs><style>.cls-1{fill:#fff;}.cls-14,.cls-15,.cls-16,.cls-17,.cls-18,.cls-19,.cls-2,.cls-20,.cls-21,.cls-22,.cls-23,.cls-24,.cls-25,.cls-26,.cls-27,.cls-28,.cls-29,.cls-30,.cls-31,.cls-32,.cls-33,.cls-34,.cls-35,.cls-36,.cls-37,.cls-39{fill:none;}.cls-3{clip-path:url(#clip-path);}.cls-4{fill:#2e1047;}.cls-5{fill:#31144e;}.cls-6{fill:#2b0b40;}.cls-7{fill:#280c3b;}.cls-8{fill:#260d35;}.cls-9{fill:#230e2f;}.cls-10{fill:#201029;}.cls-11{fill:#1e0f23;}.cls-12{fill:#1b0e1f;}.cls-13{mask:url(#mask);}.cls-14,.cls-15,.cls-16,.cls-17,.cls-18,.cls-19,.cls-20,.cls-21,.cls-22,.cls-23,.cls-24,.cls-25,.cls-26,.cls-27,.cls-28,.cls-29,.cls-30,.cls-31,.cls-32,.cls-33,.cls-34,.cls-35,.cls-36,.cls-37{stroke-miterlimit:10;}.cls-14{stroke:url(#linear-gradient);}.cls-15{stroke:url(#linear-gradient-2);}.cls-16{stroke:url(#linear-gradient-3);}.cls-17{stroke:url(#linear-gradient-4);}.cls-18{stroke:url(#linear-gradient-5);}.cls-19{stroke:url(#linear-gradient-6);}.cls-20{stroke:url(#linear-gradient-7);}.cls-21{stroke:url(#linear-gradient-8);}.cls-22{stroke:url(#linear-gradient-9);}.cls-23{stroke:url(#linear-gradient-10);}.cls-24{stroke:url(#linear-gradient-11);}.cls-25{stroke:url(#linear-gradient-12);}.cls-26{stroke:url(#linear-gradient-13);}.cls-27{stroke:url(#linear-gradient-14);}.cls-28{stroke:url(#linear-gradient-15);}.cls-29{stroke:url(#linear-gradient-16);}.cls-30{stroke:url(#linear-gradient-17);}.cls-31{stroke:url(#linear-gradient-18);}.cls-32{stroke:url(#linear-gradient-19);}.cls-33{stroke:url(#linear-gradient-20);}.cls-34{stroke:url(#linear-gradient-21);}.cls-35{stroke:url(#linear-gradient-22);}.cls-36{stroke:url(#linear-gradient-23);}.cls-37{stroke:url(#linear-gradient-24);}.cls-38{fill:#140f10;fill-opacity:0.9;}.cls-39{stroke:#010101;stroke-opacity:0.5;}.cls-40{fill:url(#linear-gradient-25);}</style><clipPath id="clip-path"><rect id="SVGID" class="cls-2" x="1.2084" y="0.5997" width="423.1291" height="197.2369"/></clipPath><mask id="mask" x="-641.9726" y="128.2487" width="1713.8997" height="146.0281" maskUnits="userSpaceOnUse"><g id="mask0_4_2" data-name="mask0 4 2"><path class="cls-1" d="M462.55,130.2361H-32.595V254.4735H462.55Z"/></g></mask><linearGradient id="linear-gradient" x1="62.6481" y1="326.676" x2="188.9118" y2="326.676" gradientTransform="matrix(1, 0, 0, -1, 0, 519.0306)" gradientUnits="userSpaceOnUse"><stop offset="0" stop-color="#fef065"/><stop offset="0.5" stop-color="#e94097"/></linearGradient><linearGradient id="linear-gradient-2" x1="165.4816" y1="326.676" x2="208.4339" y2="326.676" xlink:href="#linear-gradient"/><linearGradient id="linear-gradient-3" x1="-68.2537" y1="317.7309" x2="161.8942" y2="317.7309" xlink:href="#linear-gradient"/><linearGradient id="linear-gradient-4" x1="-183.2663" y1="326.676" x2="133.6687" y2="326.676" xlink:href="#linear-gradient"/><linearGradient id="linear-gradient-5" x1="-543.6421" y1="326.676" x2="105.8503" y2="326.676" xlink:href="#linear-gradient"/><linearGradient id="linear-gradient-6" x1="-641.9726" y1="349.5356" x2="40.8183" y2="349.5356" xlink:href="#linear-gradient"/><linearGradient id="linear-gradient-7" x1="241.0425" y1="326.676" x2="367.3065" y2="326.676" gradientTransform="matrix(1, 0, 0, -1, 0, 519.0306)" gradientUnits="userSpaceOnUse"><stop offset="0.5" stop-color="#e94097"/><stop offset="1" stop-color="#fef065"/></linearGradient><linearGradient id="linear-gradient-8" x1="221.5204" y1="326.676" x2="264.4739" y2="326.676" xlink:href="#linear-gradient-7"/><linearGradient id="linear-gradient-9" x1="268.3274" y1="317.7309" x2="498.4731" y2="317.7309" xlink:href="#linear-gradient-7"/><linearGradient id="linear-gradient-10" x1="296.2868" y1="326.676" x2="613.2216" y2="326.676" xlink:href="#linear-gradient-7"/><linearGradient id="linear-gradient-11" x1="324.1035" y1="326.676" x2="973.5942" y2="326.676" xlink:href="#linear-gradient-7"/><linearGradient id="linear-gradient-12" x1="389.1355" y1="349.5356" x2="1071.9271" y2="349.5356" xlink:href="#linear-gradient-7"/><linearGradient id="linear-gradient-13" x1="-65.9346" y1="386.8895" x2="495.8899" y2="386.8895" gradientTransform="matrix(1, 0, 0, -1, 0, 519.0306)" gradientUnits="userSpaceOnUse"><stop offset="0" stop-color="#fef065"/><stop offset="0.5" stop-color="#e94097"/><stop offset="1" stop-color="#863b96"/></linearGradient><linearGradient id="linear-gradient-14" x1="-65.9346" y1="384.6534" x2="495.8899" y2="384.6534" xlink:href="#linear-gradient-13"/><linearGradient id="linear-gradient-15" x1="-65.9346" y1="382.417" x2="495.8899" y2="382.417" xlink:href="#linear-gradient-13"/><linearGradient id="linear-gradient-16" x1="-65.9346" y1="380.1808" x2="495.8899" y2="380.1808" xlink:href="#linear-gradient-13"/><linearGradient id="linear-gradient-17" x1="-65.9346" y1="376.8678" x2="495.8899" y2="376.8678" xlink:href="#linear-gradient-13"/><linearGradient id="linear-gradient-18" x1="-65.9346" y1="373.5549" x2="495.8899" y2="373.5549" xlink:href="#linear-gradient-13"/><linearGradient id="linear-gradient-19" x1="-65.9346" y1="370.2419" x2="495.8899" y2="370.2419" xlink:href="#linear-gradient-13"/><linearGradient id="linear-gradient-20" x1="-65.9346" y1="364.6098" x2="495.8899" y2="364.6098" xlink:href="#linear-gradient-13"/><linearGradient id="linear-gradient-21" x1="-65.9346" y1="358.9777" x2="495.8899" y2="358.9777" xlink:href="#linear-gradient-13"/><linearGradient id="linear-gradient-22" x1="-65.9346" y1="351.7712" x2="495.8899" y2="351.7712" xlink:href="#linear-gradient-13"/><linearGradient id="linear-gradient-23" x1="-64.9993" y1="343.5317" x2="496.8247" y2="343.5317" xlink:href="#linear-gradient-13"/><linearGradient id="linear-gradient-24" x1="-64.9993" y1="333.7776" x2="496.8247" y2="333.7776" xlink:href="#linear-gradient-13"/><linearGradient id="linear-gradient-25" x1="179.6381" y1="-1132.3421" x2="179.6381" y2="-947.3104" gradientTransform="translate(29.3473 1135.0358)" gradientUnits="userSpaceOnUse"><stop offset="0" stop-color="#e1503e"/><stop offset="1" stop-color="#954e9e"/></linearGradient></defs><g class="cls-3"><path class="cls-4" d="M1.194,24.5969l4.606.3287c4.606.3287,13.8181.9861,23.03,2.3011s18.424,3.2873,27.636,3.616a63.2064,63.2064,0,0,0,27.6362-4.931c9.212-3.9447,18.4239-10.5192,27.6362-12.1628s18.424,1.6436,27.6359,4.2734a164.7845,164.7845,0,0,0,27.6362,5.5884c9.212.9862,18.424.9862,27.6362,2.63s18.424,4.9309,27.636,5.26,18.4247-2.3011,27.6362-6.5746,18.4231-10.19,27.6369-11.8343c9.2115-1.6436,18.423.9862,27.6346,2.63,9.2138,1.6436,18.4253,2.3011,27.6369,3.2873s18.423,2.3011,27.6368,3.616c9.2116,1.3149,18.4231,2.63,27.6346,2.63A166.4489,166.4489,0,0,0,411.13,23.282l4.6057-.6574V6.1881l-4.6057,2.63c-4.6058,2.63-13.8173,7.89-23.0312,8.8757-9.2115.9862-18.423-2.3011-27.6346-3.2873-9.2138-.9862-18.4253.3288-27.6368-1.5778-9.2116-1.94-18.4231-7.0677-27.6369-9.04C295.979,1.8161,286.7675,3,277.556,5.9252c-9.2138,2.8928-18.4254,7.495-27.6369,10.4535a89.6664,89.6664,0,0,1-27.6362,4.2735c-9.212,0-18.424-1.3149-27.636-.9861s-18.4242,2.3009-27.6362,2.3009a82.2762,82.2762,0,0,1-27.6362-5.26c-9.2122-3.2873-18.4239-7.8895-27.6359-6.9033S93.3143,17.3649,84.1024,18.68s-18.424-2.63-27.6362-3.616-18.424.9862-27.636.6575S10.406,12.7627,5.8,11.4477L1.194,10.1328Z"/><path class="cls-5" d="M1.194,10.79,5.8,12.1052C10.406,13.42,19.6181,16.05,28.83,16.3787s18.424-1.6436,27.636-.6574,18.4242,4.9309,27.6362,3.616,18.4239-7.8895,27.6362-8.8757,18.4239,3.616,27.6359,6.9033a82.2755,82.2755,0,0,0,27.6362,5.26c9.212,0,18.424-1.9723,27.6362-2.3012s18.424.9862,27.636.9862a89.6664,89.6664,0,0,0,27.6362-4.2735c9.2115-2.9586,18.4231-7.5607,27.6369-10.585,9.2115-2.9914,18.423-4.4378,27.6346-2.4654,9.2138,1.9723,18.4253,7.3635,27.6369,9.3688,9.2115,2.0381,18.423.7231,27.6368,1.7093,9.2116.9861,18.4231,4.2735,27.6346,3.2873,9.2138-.9861,18.4254-6.2459,23.0312-8.8757l4.6058-2.63V.6H1.194Z"/><path class="cls-6" d="M1.194,44.3206,5.8,43.6631a166.4446,166.4446,0,0,1,23.03-1.9723,132.183,132.183,0,0,1,27.636,3.2873c9.212,1.9724,18.4242,4.6022,27.6362,2.63S102.5263,39.061,111.7386,34.13s18.424-8.2183,27.6359-5.5884,18.4243,11.1767,27.6362,11.8342,18.424-6.5746,27.6362-4.9309,18.424,12.1629,27.636,13.1491,18.4247-7.5608,27.6362-12.1629,18.4231-5.26,27.6369-6.2459c9.2115-.9861,18.423-2.3011,27.6346-3.6159,9.2138-1.315,18.4253-2.63,27.6369-1.6438s18.423,4.2735,27.6368,6.5747c9.2116,2.301,18.4231,3.6159,27.6346,6.2457A200.1341,200.1341,0,0,1,411.13,46.293l4.6057,1.9723V21.967l-4.6057.6575a166.4316,166.4316,0,0,1-23.0312,1.9723c-9.2115,0-18.423-1.3149-27.6346-2.63-9.2138-1.3148-18.4253-2.63-27.6368-3.6159s-18.4231-1.6436-27.6369-3.2873c-9.2115-1.6436-18.4231-4.2734-27.6346-2.63-9.2138,1.6436-18.4254,7.5607-27.6369,11.8342s-18.4239,6.9033-27.6362,6.5746-18.4239-3.616-27.6359-5.26-18.4243-1.6437-27.6362-2.63a164.7992,164.7992,0,0,1-27.6363-5.5883c-9.2122-2.63-18.4239-5.9172-27.6359-4.2736S93.3143,21.31,84.1024,25.2543a63.2044,63.2044,0,0,1-27.6362,4.9309c-9.2123-.3287-18.424-2.3011-27.636-3.6159S10.406,24.597,5.8,24.2681l-4.606-.3287Z"/><path class="cls-7" d="M1.194,73.9154,5.8,69.3131c4.606-4.6021,13.8181-13.8065,23.03-15.1214s18.424,5.26,27.636,11.5055S74.89,77.86,84.1024,77.2026s18.4239-7.8895,27.6362-15.45,18.424-15.45,27.6359-17.4225,18.4243,1.9723,27.6362,1.9723,18.424-3.9448,27.6362-2.63,18.424,7.8895,27.636,7.5608,18.4247-7.5608,27.6362-6.9033,18.4231,9.2043,27.6369,10.5193c9.2115,1.3149,18.423-4.6022,27.6346-9.8619,9.2138-5.26,18.4253-9.8618,27.6369-7.8895s18.423,10.5193,27.6368,16.4364c9.2116,5.9171,18.4231,9.2045,27.6346,8.8757,9.2138-.3287,18.4254-4.2734,23.0312-6.2458l4.6057-1.9723V47.6171L411.13,45.6448a200.1109,200.1109,0,0,0-23.0312-8.5469c-9.2115-2.63-18.423-3.9447-27.6346-6.2459-9.2138-2.301-18.4253-5.5883-27.6368-6.5745s-18.4231.3288-27.6369,1.6436c-9.2116,1.315-18.4231,2.63-27.6346,3.6161-9.2138.9861-18.4254,1.6436-27.6369,6.2458s-18.424,13.1491-27.6362,12.1629-18.424-11.5055-27.636-13.1492-18.4242,5.5885-27.6362,4.931-18.4239-9.2044-27.6361-11.8342-18.424.6575-27.636,5.5884S93.3143,44.9873,84.1024,46.96s-18.424-.6575-27.6362-2.63A132.1861,132.1861,0,0,0,28.83,41.0426,166.4619,166.4619,0,0,0,5.8,43.0149l-4.606.6575Z"/><path class="cls-8" d="M1.194,95.6022,5.8,90.6713c4.606-4.931,13.8181-14.7928,23.03-13.478S47.2542,91,56.4662,95.6022,74.89,96.917,84.1024,92.3149A248.02,248.02,0,0,0,111.7386,75.55c9.2122-6.2458,18.424-12.82,27.6359-9.8618s18.4243,15.45,27.6362,15.1216,18.424-13.478,27.6362-16.4365,18.424,4.2735,27.636,3.6161,18.4247-9.2045,27.6362-8.2183,18.4231,11.5055,27.6369,12.163c9.2115.6574,18.423-8.547,27.6346-13.4779,9.2138-4.9309,18.4253-5.5884,27.6369,0s18.423,17.4226,27.6368,23.6684c9.2116,6.2459,18.4231,6.9033,27.6346,5.26,9.2138-1.6436,18.4254-5.5884,23.0312-7.5607l4.6057-1.9723V53.5249L411.13,55.4972c-4.6058,1.9723-13.8173,5.9171-23.0312,6.2459-9.2115.3287-18.423-2.9586-27.6346-8.8757-9.2138-5.9171-18.4253-14.464-27.6368-16.4364s-18.4231,2.63-27.6369,7.89c-9.2116,5.26-18.4231,11.1767-27.6346,9.8619-9.2138-1.315-18.4254-9.8619-27.6369-10.5194s-18.424,6.5746-27.6362,6.9033-18.424-6.2458-27.636-7.5607-18.4242,2.63-27.6362,2.63-18.4239-3.9447-27.6362-1.9723-18.4239,9.8619-27.6359,17.4227-18.4243,14.7927-27.6362,15.45-18.424-5.26-27.6362-11.5053S38.0422,52.21,28.83,53.525,10.406,64.0444,5.8,68.6466l-4.606,4.602Z"/><path class="cls-9" d="M1.194,105.4643l4.606.3281c4.606.329,13.8181.9862,23.03,4.9309s18.424,11.1771,27.636,12.4924,18.4242-3.2877,27.6362-8.2186,18.4239-10.1908,27.6362-15.45,18.424-10.5194,27.6359-9.5332,18.4243,8.2182,27.6362,10.1906,18.424-1.3149,27.6362-4.6021,18.424-6.5747,27.636-9.2045,18.4247-4.6021,27.6362,1.315,18.4231,19.724,27.6369,22.0244c9.2115,2.3014,18.423-6.9033,27.6346-12.4913,9.2138-5.5884,18.4253-7.5608,27.6369-1.315s18.423,20.71,27.6368,29.2572c9.2116,8.5466,18.4231,11.1761,27.6346,10.19,9.2138-.9861,18.4254-5.588,23.0312-7.8895l4.6058-2.3V77.1933L411.13,79.1656c-4.6058,1.9723-13.8173,5.9171-23.0311,7.5609-9.2115,1.6436-18.4231.9861-27.6346-5.26-9.2138-6.2459-18.4254-18.08-27.6369-23.6685s-18.4231-4.9309-27.6369,0c-9.2115,4.931-18.423,14.1354-27.6346,13.4779-9.2138-.6575-18.4253-11.1767-27.6368-12.1629s-18.424,7.5607-27.6362,8.2181-18.424-6.5745-27.636-3.616-18.4242,16.1078-27.6362,16.4364-18.424-12.1628-27.6363-15.1212-18.4239,3.6159-27.6359,9.8618a248.0147,248.0147,0,0,1-27.6362,16.765c-9.212,4.6023-18.424,7.8895-27.6362,3.2873S38.0422,77.8508,28.83,76.5359,10.406,85.0829,5.8,90.0137l-4.606,4.931Z"/><path class="cls-10" d="M1.194,180.4144,5.8,169.5663c4.606-10.8479,13.8181-32.5441,23.03-35.8317s18.424,11.8342,27.636,14.7928,18.4242-6.2462,27.6362-7.2324,18.4239,6.2462,27.6362,12.1633,18.424,10.5189,27.6359,2.9585,18.4243-27.284,27.6362-26.956,18.424,20.71,27.6362,19.7237,18.424-23.3394,27.636-37.1459,18.4247-19.0663,27.6362-13.8066,18.4231,21.0389,27.6369,27.2841c9.2115,6.2462,18.423,2.9585,27.6346-1.9723,9.2138-4.9309,18.4253-11.5052,27.6369-6.2452s18.423,22.3532,27.6368,35.8307c9.2116,13.4786,18.4231,23.34,27.6346,22.0251,9.2138-1.3152,18.4254-13.8066,23.0312-20.0527l4.6058-6.2452V124.53l-4.6058,2.3014c-4.6058,2.3015-13.8173,6.9033-23.0311,7.8895-9.2115.9862-18.4231-1.6433-27.6346-10.1909-9.2138-8.5466-18.4254-23.01-27.6369-29.2565S314.4044,91,305.1906,96.5884c-9.2115,5.5883-18.423,14.793-27.6346,12.4916-9.2138-2.3014-18.4253-16.1077-27.6368-22.0248s-18.424-3.9447-27.6362-1.3149-18.424,5.9171-27.636,9.2044-18.4243,6.5749-27.6363,4.6022-18.4239-9.2044-27.6362-10.1906-18.4239,4.2735-27.6359,9.5331-18.4243,10.52-27.6362,15.4506-18.424,9.5328-27.6362,8.2175-18.424-8.5466-27.636-12.4913-18.4242-4.6019-23.03-4.931l-4.606-.329Z"/><path class="cls-11" d="M1.194,192.2486,5.8,190.2763c4.606-1.9723,13.8181-5.9171,23.03-5.9171s18.424,3.9447,27.636,6.9032,18.4242,4.931,27.6362,4.6019,18.4239-2.9586,27.6362-4.9309,18.424-3.2876,27.6359-2.63,18.4243,3.2866,27.6362,3.6157,18.424-1.6433,27.6362-4.6019,18.424-6.9033,27.636-8.2185,18.4247,0,27.6362-.6571,18.4231-3.2877,27.6369-5.26c9.2115-1.9723,18.423-3.2876,27.6346-2.6295a68.3361,68.3361,0,0,1,27.6369,8.2175c9.2115,4.9309,18.423,12.1633,27.6368,15.779,9.2116,3.6167,18.4231,3.6167,27.6346,2.3014a177.8185,177.8185,0,0,0,23.0312-5.26l4.6057-1.3142v-42.078l-4.6057,6.2462c-4.6058,6.2463-13.8173,18.7375-23.0312,20.0528-9.2115,1.3143-18.423-8.5476-27.6346-22.0251-9.2138-13.4775-18.4253-30.5717-27.6368-35.8317s-18.4231,1.3152-27.6369,6.2462c-9.2116,4.9309-18.4231,8.2185-27.6346,1.9723-9.2138-6.2462-18.4254-22.0251-27.6369-27.2844s-18.424,0-27.6362,13.8069-18.424,36.16-27.636,37.1459-18.4242-19.3946-27.6362-19.7237-18.4239,19.3946-27.6362,26.956-18.4239,2.9585-27.6359-2.9585-18.4243-13.1495-27.6362-12.1633-18.424,10.1908-27.6362,7.2324-18.424-18.08-27.636-14.7928S10.406,158.06,5.8,168.9082l-4.606,10.848Z"/><path class="cls-12" d="M1.194,198.1657H415.7359v-8.5476l-4.6058,1.3152a177.8162,177.8162,0,0,1-23.0311,5.26c-9.2115,1.3143-18.4231,1.3143-27.6346-2.3014-9.2138-3.6157-18.4254-10.848-27.6369-15.779a68.3533,68.3533,0,0,0-27.6369-8.2185c-9.2115-.6571-18.423.6581-27.6346,2.6305-9.2138,1.9723-18.4253,4.6019-27.6368,5.259s-18.424-.6571-27.6362.6581-18.424,5.259-27.636,8.2175-18.4242,4.931-27.6362,4.6029-18.424-2.9584-27.6362-3.6167-18.424.6582-27.636,2.63-18.4242,4.6019-27.6362,4.9309-18.424-1.6442-27.6362-4.6028-18.424-6.9033-27.636-6.9033-18.4241,3.9447-23.03,5.9171L1.194,191.5905Z"/><g class="cls-13"><path class="cls-14" d="M63.1718,255.9641,188.3881,128.7452"/><path class="cls-15" d="M166.1619,255.9641l41.592-127.2189"/><path class="cls-16" d="M-67.9864,273.8542l229.3457-145.109"/><path class="cls-17" d="M-183.08,255.9641,133.4823,128.7452"/><path class="cls-18" d="M-543.5459,255.9641l649.3-127.2189"/><path class="cls-19" d="M-641.9133,210.245l682.6723-81.5"/><path class="cls-20" d="M366.783,255.9641,241.5661,128.7452"/><path class="cls-21" d="M263.7929,255.9641,222.2006,128.7452"/><path class="cls-22" d="M497.9411,273.8542,268.5947,128.7452"/><path class="cls-23" d="M613.0352,255.9641,296.4733,128.7452"/><path class="cls-24" d="M973.498,255.9641,324.2,128.7452"/><path class="cls-25" d="M1071.8678,210.245l-682.673-81.5"/><path class="cls-26" d="M-65.9346,132.1411H495.89"/><path class="cls-27" d="M-65.9346,134.3773H495.89"/><path class="cls-28" d="M-65.9346,136.6136H495.89"/><path class="cls-29" d="M-65.9346,138.85H495.89"/><path class="cls-30" d="M-65.9346,142.1628H495.89"/><path class="cls-31" d="M-65.9346,145.4758H495.89"/><path class="cls-32" d="M-65.9346,148.7888H495.89"/><path class="cls-33" d="M-65.9346,154.4209H495.89"/><path class="cls-34" d="M-65.9346,160.0529H495.89"/><path class="cls-35" d="M-65.9346,167.2594H495.89"/><path class="cls-36" d="M-64.9993,175.499h561.824"/><path class="cls-37" d="M-64.9993,185.253h561.824"/></g><path class="cls-38" d="M134.2793,3.3419H19.469L5.1266,8.4773,4.78,31.0345H.5V.5H417.0544V196.84L.5,198.036V31.362H2.929V46.718l13.1857,7.7778V88.2494L5.8206,95.18v75.1355l36.3187,24.8092H398.6175l13.3014-8.5058,1.6193-40.0855c-4.4808-2.2137-13.6484-7.8237-13.6484-9.0741s-.81-29.1169-.81-44.2238l13.764-8.2763V7.0314L401.0465,3.08Z"/><path class="cls-39" d="M4.78,31.0345H.5V.5H417.0544V196.84L.5,198.036V31.362H2.929V46.718l13.1857,7.7778V88.2494L5.8206,95.18v75.1355l36.3187,24.8092H398.6175l13.3014-8.5058,1.6193-40.0855c-4.4808-2.2137-13.6484-7.8237-13.6484-9.0741s-.81-29.1169-.81-44.2238l13.764-8.2763V7.0314L401.0465,3.08l-266.7672.2616H19.469L5.1266,8.4773Z"/><path class="cls-40" d="M398.9391,195.4434l-357.0164.2992L4.825,170.2155V94.8307l9.3234-6.4316V54.7951L3.3916,46.4066l.5107-17.29V8.4274L19.5847,2.6937H400.5352L414.35,6.9815V85.0932l-13.815,8.7158v43.7078l14.044,8.8607-1.728,40.289ZM41.9227,194.3516H398.2219l12.899-8.1378,1.73-39.3836-14.044-8.8617V93.3569l13.815-8.7158V7.68L399.82,3.7853H134.5388l-13.01,0H45.2231l-23.7878,0L6.2832,9.3248V46.07l10.6925,8.1673V88.3991l-9.42,6.4316v75.3848Z"/></g></svg>