<svg width="1164" height="150" viewBox="0 0 1164 150" fill="none" xmlns="http://www.w3.org/2000/svg">
<path d="M2.6366 147.745V12.4719L42.1836 0.959351H1157.41V147.745H2.6366Z" fill="#27063B"/>
<path d="M1164 150H827.664H798.594H0V69.3675V12.1814L36.0644 0.296589H380.128H419.163H933.832L973.779 0H1164V17.7485V78.8283V150ZM831.1 147.265C862.454 147.382 880.031 147.406 911.384 147.265H991.667H1152.23L1155.67 78.8283L1153.45 17.7485L1152.23 3.0317L977.605 2.73511L941.977 3.0317H419.163H375.808H39.5059L8.29969 13.3152V68.2358V147.265H422.209H803.474H831.1Z" fill="url(#paint0_linear_34_12680)"/>
<defs>
<linearGradient id="paint0_linear_34_12680" x1="-2.24087e-07" y1="45.1783" x2="1189.22" y2="45.1783" gradientUnits="userSpaceOnUse">
<stop stop-color="#DF4E45"/>
<stop offset="1" stop-color="#BD32BB"/>
</linearGradient>
</defs>
</svg>
