<svg width="98" height="67" viewBox="0 0 98 67" fill="none" xmlns="http://www.w3.org/2000/svg">
<g clip-path="url(#clip0_31_11846)">
<g style="mix-blend-mode:screen" opacity="0.71">
<path d="M1.32617 12.8402L5.48668 3.10132H33.6306L37.4239 11.9821H78.1716L80.3129 16.9954H97.678V56.3859H91.6312L88.3274 64.1209H5.73175L1.38762 53.9504L1.32617 12.8402Z" fill="#003259"/>
</g>
<path d="M41.8222 0.0986633L39.4536 5.64392H42.8003L45.1696 0.0986633H41.8222Z" fill="url(#paint0_linear_31_11846)"/>
<path d="M48.5162 0.0986633L46.147 5.64392H49.4937L51.8629 0.0986633H48.5162Z" fill="url(#paint1_linear_31_11846)"/>
<path d="M61.9039 0.0986633L59.5347 5.64392H62.8821L65.2506 0.0986633H61.9039Z" fill="url(#paint2_linear_31_11846)"/>
<path d="M55.2103 0.0986633L52.8411 5.64392H56.1878L58.557 0.0986633H55.2103Z" fill="url(#paint3_linear_31_11846)"/>
<path d="M88.461 64.8753H5.59808L1.06575 54.2649L1.06511 53.9537L1.00366 12.5291L5.35329 2.34607H33.7642L37.5574 11.2265H78.305L80.4465 16.2401H98.0002V57.1409H91.7651L88.461 64.8753ZM5.86537 63.3658H88.1939L91.4979 55.6314H97.3553V17.7497H80.1792L78.0378 12.736H37.2901L33.4971 3.85558H5.62037L1.64907 13.1517L1.70923 53.6374L5.86537 63.3658Z" fill="url(#paint4_linear_31_11846)"/>
<path d="M97.6778 9.75402H82.4784L79.9955 3.93945H67.2161V2.4306H80.2627L82.7456 8.2435H97.6778V9.75402Z" fill="url(#paint5_linear_31_11846)"/>
<path d="M12.5838 67.2206H5.18303L0.450928 56.1434L2.32362 51.7591L6.28049 61.0196H12.5838V67.2206Z" fill="url(#paint6_linear_31_11846)"/>
<path d="M88.8762 67.2205H52.3162V61.0195H87.7787L91.0825 53.2863H97.5673V59.4873H92.18L88.8762 67.2205Z" fill="url(#paint7_linear_31_11846)"/>
<path d="M0.0192914 24.3841L0 11.5606L4.93788 0H33.6306V6.20098H6.03534L2.65292 14.1199L2.66793 24.3623L0.0192914 24.3841Z" fill="url(#paint8_linear_31_11846)"/>
</g>
<defs>
<linearGradient id="paint0_linear_31_11846" x1="39.4536" y1="2.87129" x2="45.1696" y2="2.87129" gradientUnits="userSpaceOnUse">
<stop stop-color="#E04E42"/>
<stop offset="1" stop-color="#BD32BB"/>
</linearGradient>
<linearGradient id="paint1_linear_31_11846" x1="46.147" y1="2.87129" x2="51.8629" y2="2.87129" gradientUnits="userSpaceOnUse">
<stop stop-color="#E04E42"/>
<stop offset="1" stop-color="#BD32BB"/>
</linearGradient>
<linearGradient id="paint2_linear_31_11846" x1="59.5347" y1="2.87129" x2="65.2506" y2="2.87129" gradientUnits="userSpaceOnUse">
<stop stop-color="#E04E42"/>
<stop offset="1" stop-color="#BD32BB"/>
</linearGradient>
<linearGradient id="paint3_linear_31_11846" x1="52.8411" y1="2.87129" x2="58.557" y2="2.87129" gradientUnits="userSpaceOnUse">
<stop stop-color="#E04E42"/>
<stop offset="1" stop-color="#BD32BB"/>
</linearGradient>
<linearGradient id="paint4_linear_31_11846" x1="1.00366" y1="33.6107" x2="98.0002" y2="33.6107" gradientUnits="userSpaceOnUse">
<stop stop-color="#E04E42"/>
<stop offset="1" stop-color="#BD32BB"/>
</linearGradient>
<linearGradient id="paint5_linear_31_11846" x1="67.2161" y1="6.09231" x2="97.6778" y2="6.09231" gradientUnits="userSpaceOnUse">
<stop stop-color="#E04E42"/>
<stop offset="1" stop-color="#BD32BB"/>
</linearGradient>
<linearGradient id="paint6_linear_31_11846" x1="0.450928" y1="59.4898" x2="12.5838" y2="59.4898" gradientUnits="userSpaceOnUse">
<stop stop-color="#E04E42"/>
<stop offset="1" stop-color="#BD32BB"/>
</linearGradient>
<linearGradient id="paint7_linear_31_11846" x1="52.3162" y1="60.2534" x2="97.5673" y2="60.2534" gradientUnits="userSpaceOnUse">
<stop stop-color="#E04E42"/>
<stop offset="1" stop-color="#BD32BB"/>
</linearGradient>
<linearGradient id="paint8_linear_31_11846" x1="0" y1="12.192" x2="33.6306" y2="12.192" gradientUnits="userSpaceOnUse">
<stop stop-color="#E04E42"/>
<stop offset="1" stop-color="#BD32BB"/>
</linearGradient>
<clipPath id="clip0_31_11846">
<rect width="98" height="67" fill="white"/>
</clipPath>
</defs>
</svg>
