<svg width="1421" height="1232" viewBox="0 0 1421 1232" fill="none" xmlns="http://www.w3.org/2000/svg">
<path d="M11.5302 119.192L43.5 16.4999H140.5H419H460.5H557.5L1365.81 24.83L1418.8 54.0855V510.059V571.45V882.495L1419.49 944.906V1171.14L1379.06 1230.71H125.561L12.1591 1063.59V584.543V534.717L8.46392 424.15L8.46387 295.584V236.444L11.5302 119.192Z" fill="#1D265A"/>
<path d="M1380.14 1234.56H124.481L123.718 1233.43L9.54968 1065.18V582.951V539.817L8.10404 298.67L8.10402 232.844V117.374L8.104 116.106L39.278 12.4525H451.031L1380.14 15.8282L1421.41 50.4779V511.651V576.228V884.089L1422.1 943.319V1172.73L1380.14 1234.56ZM126.641 1226.87H1377.98L1416.88 1169.55V946.5L1416.16 887.272V573.042L1416.19 508.464V53.6629L1374.53 29.3308L445.5 21.4999L161.869 21.4999H45.0062L14.7639 117.374V232.844V298.67V536.259V586.136V1062L126.641 1226.87Z" fill="#D8485F"/>
<path d="M233.154 1248H120.704L0.422363 1070.75V584.543H23.8904V1056.42L130.419 1213.42H233.154V1248Z" fill="#D8485F"/>
<path d="M1387.36 1242.94L1370.77 1218.48L1407.75 1163.97V952.073L1407.75 840H1431.22V937.747V1178.3L1387.36 1242.94Z" fill="#D8485F"/>
<path d="M1430.2 509.796H1406.82V82.3056L1371.56 32.8699H1312.66V0.0753174H1381.24L1430.2 68.7218V509.796Z" fill="#D8485F"/>
</svg>
