<svg width="666" height="778" viewBox="0 0 666 778" fill="none" xmlns="http://www.w3.org/2000/svg">
<path d="M12 767.5V2.5H135.5L168.5 34H663V695.5L582 767.5H12Z" fill="#1C0223" stroke="#B42BD8" stroke-width="5"/>
<path d="M13.5 167.5H140.5L171.5 200H664" stroke="#B42BD8" stroke-width="5"/>
<path d="M12 360H139L170 392.5H662.5" stroke="#B42BD8" stroke-width="5"/>
<path d="M12 518H139L170 550.5H662.5" stroke="#B42BD8" stroke-width="5"/>
<path d="M20 689.5H1.5C0.947715 689.5 0.5 689.948 0.5 690.5V777C0.5 777.552 0.947715 778 1.5 778H66C66.5523 778 67 777.552 67 777V756C67 755.448 66.5523 755 66 755H22C21.4477 755 21 754.552 21 754V690.5C21 689.948 20.5523 689.5 20 689.5Z" fill="#B42BD8"/>
</svg>
