<svg width="666" height="778" viewBox="0 0 666 778" fill="none" xmlns="http://www.w3.org/2000/svg">
<path d="M12 767.5V2.5H135.5L168.5 34H663V695.5L582 767.5H12Z" fill="#1C0223" stroke="#B42BD8" stroke-width="5"/>
<path d="M13.5 167.5H140.5L171.5 200H664" stroke="#B42BD8" stroke-width="5"/>
<path d="M12 360H139L170 392.5H662.5" stroke="#B42BD8" stroke-width="5"/>
<path d="M12 518H139L170 550.5H662.5" stroke="#B42BD8" stroke-width="5"/>
<path d="M20 689.5H1.5C0.947715 689.5 0.5 689.948 0.5 690.5V777C0.5 777.552 0.947715 778 1.5 778H66C66.5523 778 67 777.552 67 777V756C67 755.448 66.5523 755 66 755H22C21.4477 755 21 754.552 21 754V690.5C21 689.948 20.5523 689.5 20 689.5Z" fill="#B42BD8"/>
<path d="M212.248 498V475.6H245.176V498H212.248ZM220.6 489.968L233.336 480.144H220.6V489.968ZM224.088 493.456H236.824V483.632L224.088 493.456ZM250.28 498V492.816H258.632V498H250.28ZM263.123 498V493.456H268.435V484.048L263.123 486.608V480.976L276.787 474.416V498H263.123Z" fill="white"/>
<path d="M298.759 480.144V475.6H311.879V491.28L315.975 493.456H328.391V475.6H336.743V498H313.735L303.527 492.56V480.144H298.759ZM343.146 498V490.64L351.498 491.856V493.456H367.69V490.64L343.146 486.768V475.6H376.042V483.376L367.69 482.096V480.144H351.498V483.184L376.042 487.056V498H343.146ZM379.242 480.144V475.6H407.018L417.226 481.04V498H384.01V480.144H379.242ZM392.394 493.456H408.906V482.32L404.81 480.144H392.394V493.456ZM420.437 480.144V475.6H458.453V483.856L450.101 482.704V480.144H433.557V493.456H450.101V490.896L458.453 489.744V498H425.205V480.144H420.437Z" fill="#D8485D"/>
<path d="M208.638 442.072V439.8H227.646V444.2L223.982 445.4L227.646 446.6V451H211.022V442.072H208.638ZM215.198 448.728H223.47V447.912L220.318 446.536H215.198V448.728ZM215.198 444.264H220.318L223.47 442.888V442.072H215.198V444.264ZM229.251 444.6V442.52H245.411V446.76L235.251 448.2V448.92H241.411V448.2L245.411 447.8V451H231.251V444.6H229.251ZM235.251 446.136L241.411 445.32V444.6H235.251V446.136ZM247.005 444.6V442.52H249.005V439.8H253.005V442.52H256.925V444.6H253.005V448.44L253.965 448.92H260.125V451H252.925L249.005 449.08V444.6H247.005ZM267.329 451L271.233 442.072H269.249V439.8H280.369L285.233 451H280.913L279.697 448.2H272.881L271.665 451H267.329ZM273.873 445.928H278.705L277.009 442.072H275.569L273.873 445.928ZM286.831 451V442.52H289.695L290.511 443.32L291.311 442.52H295.391L297.151 443.4L298.911 442.52H303.551L307.471 444.44V451H303.471V445.08L302.511 444.6H299.951L299.151 445V451H295.151V445L294.351 444.6H290.831V451H286.831ZM310.351 451V442.52H324.831V451H310.351ZM314.351 448.92H320.831V444.6H314.351V448.92ZM326.43 444.6V442.52H332.43V448.44L333.39 448.92H338.75V442.52H342.75V451H339.886L339.07 450.2L338.27 451H332.35L328.43 449.08V444.6H326.43ZM345.796 451V442.52H348.66L349.476 443.32L350.276 442.52H356.196L360.116 444.44V451H356.116V445.08L355.156 444.6H349.796V451H345.796ZM361.562 444.6V442.52H363.562V439.8H367.563V442.52H371.483V444.6H367.563V448.44L368.523 448.92H374.683V451H367.483L363.562 449.08V444.6H361.562Z" fill="#656060"/>
<path d="M43.0462 34V30.32L47.2222 30.928V31.728H55.3182V30.32L43.0462 28.384V22.8H59.4942V26.688L55.3182 26.048V25.072H47.2222V26.592L59.4942 28.528V34H43.0462ZM61.0944 27.6V25.52H63.0944V22.8H67.0944V25.52H71.0144V27.6H67.0944V31.44L68.0544 31.92H74.2144V34H67.0144L63.0944 32.08V27.6H61.0944ZM74.0356 27.6V25.52H90.1956V29.76L80.0356 31.2V31.92H86.1956V31.2L90.1956 30.8V34H76.0356V27.6H74.0356ZM80.0356 29.136L86.1956 28.32V27.6H80.0356V29.136ZM91.7894 27.6V25.52H96.6694L97.4694 26.32L98.2694 25.52H108.109V33.04L97.7894 34.32V36.72H93.7894V27.6H91.7894ZM97.7894 32.32L104.109 31.52V27.6H97.7894V32.32ZM117.561 34V31.728H120.217V27.024L117.561 28.304V25.488L124.393 22.208V34H117.561Z" fill="white"/>
<path d="M38.1244 201V197.32L42.3004 197.928V198.728H50.3964V197.32L38.1244 195.384V189.8H54.5724V193.688L50.3964 193.048V192.072H42.3004V193.592L54.5724 195.528V201H38.1244ZM56.1725 194.6V192.52H58.1725V189.8H62.1725V192.52H66.0925V194.6H62.1725V198.44L63.1325 198.92H69.2925V201H62.0925L58.1725 199.08V194.6H56.1725ZM69.1137 194.6V192.52H85.2737V196.76L75.1137 198.2V198.92H81.2737V198.2L85.2737 197.8V201H71.1137V194.6H69.1137ZM75.1137 196.136L81.2737 195.32V194.6H75.1137V196.136ZM86.8675 194.6V192.52H91.7475L92.5475 193.32L93.3475 192.52H103.187V200.04L92.8675 201.32V203.72H88.8675V194.6H86.8675ZM92.8675 199.32L99.1875 198.52V194.6H92.8675V199.32ZM112.799 201V195.576L125.391 193.592V192.072H116.975V193.048L112.799 193.688V189.8H129.567V195.384L116.975 197.368V198.728H125.391V197.928L129.567 197.32V201H112.799Z" fill="white"/>
<path d="M38.4369 394V390.32L42.6129 390.928V391.728H50.7089V390.32L38.4369 388.384V382.8H54.8849V386.688L50.7089 386.048V385.072H42.6129V386.592L54.8849 388.528V394H38.4369ZM56.485 387.6V385.52H58.485V382.8H62.485V385.52H66.405V387.6H62.485V391.44L63.445 391.92H69.605V394H62.405L58.485 392.08V387.6H56.485ZM69.4262 387.6V385.52H85.5862V389.76L75.4262 391.2V391.92H81.5862V391.2L85.5862 390.8V394H71.4262V387.6H69.4262ZM75.4262 389.136L81.5862 388.32V387.6H75.4262V389.136ZM87.18 387.6V385.52H92.06L92.86 386.32L93.66 385.52H103.5V393.04L93.18 394.32V396.72H89.18V387.6H87.18ZM93.18 392.32L99.5 391.52V387.6H93.18V392.32ZM112.952 394V390.112L117.128 390.752V391.728H125.384V390.912L122.248 389.536H118.584V387.264H122.248L125.384 385.888V385.072H117.128V386.048L112.952 386.688V382.8H129.56V387.2L125.896 388.4L129.56 389.6V394H112.952Z" fill="white"/>
<path d="M39.1087 552V548.32L43.2847 548.928V549.728H51.3807V548.32L39.1087 546.384V540.8H55.5567V544.688L51.3807 544.048V543.072H43.2847V544.592L55.5567 546.528V552H39.1087ZM57.1569 545.6V543.52H59.1569V540.8H63.1569V543.52H67.0769V545.6H63.1569V549.44L64.1169 549.92H70.2769V552H63.0769L59.1569 550.08V545.6H57.1569ZM70.0981 545.6V543.52H86.2581V547.76L76.0981 549.2V549.92H82.2581V549.2L86.2581 548.8V552H72.0981V545.6H70.0981ZM76.0981 547.136L82.2581 546.32V545.6H76.0981V547.136ZM87.8519 545.6V543.52H92.7319L93.5319 544.32L94.3319 543.52H104.172V551.04L93.8519 552.32V554.72H89.8519V545.6H87.8519ZM93.8519 550.32L100.172 549.52V545.6H93.8519V550.32ZM112.664 550.496V548.208L128.216 540.112V548.224H130.68V550.496H128.216V552H124.04V550.496H112.664ZM118.04 548.224H124.04V545.088L118.04 548.224Z" fill="white"/>
</svg>
