<svg width="1421" height="1300" viewBox="0 0 1421 1300" fill="none" xmlns="http://www.w3.org/2000/svg">
<g style="mix-blend-mode:screen" opacity="0.71">
<path d="M11.5303 187.192V3.10101H130.297H411.17L460.23 92.83H550.175H1365.81L1418.8 122.085V578.059L1377.14 639.45V950.495L1419.49 1012.91V1239.14L1379.06 1298.71H125.561L12.1592 1131.59V652.543V602.717L8.46404 492.15L8.46399 363.584V304.444L11.5303 187.192Z" fill="#003259"/>
</g>
<path d="M1380.14 1302.56H124.481L123.718 1301.43L9.54981 1133.18V650.951V607.818L8.10418 366.67L8.10416 300.844V185.374L8.10414 184.106L8.10418 0H419.857L451.031 80.4526L1380.14 83.8283L1421.41 118.478V579.651L1379.75 641.044V948.905L1422.1 1011.32V1240.73L1380.14 1302.56ZM126.642 1294.87H1377.98L1416.88 1237.55V1014.5L1374.53 952.089V637.858L1416.19 576.464V121.663L1374.53 97.3308H451.031L415.258 6.94315H131.627H14.7641V185.374V300.844V366.67V604.259V654.136V1130L126.642 1294.87Z" fill="#D8485F"/>
<path d="M233.154 1316H120.704L0.422363 1138.75V652.543H23.8904V1124.42L130.419 1281.42H233.154V1316Z" fill="#D8485F"/>
<path d="M1387.36 1310.94L1370.77 1286.48L1407.75 1231.97V1020.07L1368.84 962.722L1385.43 938.267L1431.22 1005.75V1246.3L1387.36 1310.94Z" fill="#D8485F"/>
<path d="M1430.2 577.796H1406.82V150.306L1371.56 100.87H1312.66V68.0754H1381.24L1430.2 136.722V577.796Z" fill="#D8485F"/>
<path d="M16.6408 164.844L0.287231 149.091V0.562622H417.302L456.805 77.5926H519.512V100.769H446.581L405.037 19.6912H16.6408V164.844Z" fill="#D8485F"/>
</svg>
