<svg width="1421" height="1300" viewBox="0 0 1421 1300" fill="none" xmlns="http://www.w3.org/2000/svg">
<g style="mix-blend-mode:screen" opacity="0.71">
<path d="M11.5303 187.192V3.10101H130.297H411.17L460.23 92.83H550.175H1365.81L1418.8 122.085V578.059L1377.14 639.45V950.495L1419.49 1012.91V1239.14L1379.06 1298.71H125.561L12.1592 1131.59V652.543V602.717L8.46404 492.15L8.46399 363.584V304.444L11.5303 187.192Z" fill="#003259"/>
</g>
<path d="M1380.14 1302.56H124.481L123.718 1301.43L9.54981 1133.18V650.951V607.818L8.10418 366.67L8.10416 300.844V185.374L8.10414 184.106L8.10418 0H419.857L451.031 80.4526L1380.14 83.8283L1421.41 118.478V579.651L1379.75 641.044V948.905L1422.1 1011.32V1240.73L1380.14 1302.56ZM126.642 1294.87H1377.98L1416.88 1237.55V1014.5L1374.53 952.089V637.858L1416.19 576.464V121.663L1374.53 97.3308H451.031L415.258 6.94315H131.627H14.7641V185.374V300.844V366.67V604.259V654.136V1130L126.642 1294.87Z" fill="#D8485F"/>
<path d="M233.154 1316H120.704L0.422363 1138.75V652.543H23.8904V1124.42L130.419 1281.42H233.154V1316Z" fill="#D8485F"/>
<path d="M1387.36 1310.94L1370.77 1286.48L1407.75 1231.97V1020.07L1368.84 962.722L1385.43 938.267L1431.22 1005.75V1246.3L1387.36 1310.94Z" fill="#D8485F"/>
<path d="M1430.2 577.796H1406.82V150.306L1371.56 100.87H1312.66V68.0754H1381.24L1430.2 136.722V577.796Z" fill="#D8485F"/>
<path d="M16.6408 164.844L0.287231 149.091V0.562622H417.302L456.805 77.5926H519.512V100.769H446.581L405.037 19.6912H16.6408V164.844Z" fill="#D8485F"/>
<mask id="path-7-outside-1_25_3921" maskUnits="userSpaceOnUse" x="88" y="54" width="254" height="32" fill="black">
<rect fill="white" x="88" y="54" width="254" height="32"/>
<path d="M89.3084 62.68V57H136.828V66.92L126.388 65.48V62.68H105.708V79.32H126.388V75.52H117.948V69.84H136.828V85H95.2684V62.68H89.3084ZM141.232 85L150.992 62.68H146.032V57H173.832L185.992 85H175.192L172.152 78H155.112L152.072 85H141.232ZM157.592 72.32H169.672L165.432 62.68H161.832L157.592 72.32ZM189.988 85V55.88L215.388 63.36L240.748 55.88V85H226.908V79.32H230.308V65.64L220.588 68.4V85H210.148V68.4L200.428 65.64V79.32H203.828V85H189.988ZM244.738 62.68V57H292.298V67.32L281.858 65.88V62.68H261.178V68.16H278.178V73.84H261.178V79.32H281.858V76.12L292.298 74.68V85H250.738V62.68H244.738ZM299.08 85V75.8L309.52 77.32V79.32H329.76V75.8L299.08 70.96V57H340.2V66.72L329.76 65.12V62.68H309.52V66.48L340.2 71.32V85H299.08Z"/>
</mask>
<path d="M89.3084 62.68V57H136.828V66.92L126.388 65.48V62.68H105.708V79.32H126.388V75.52H117.948V69.84H136.828V85H95.2684V62.68H89.3084ZM141.232 85L150.992 62.68H146.032V57H173.832L185.992 85H175.192L172.152 78H155.112L152.072 85H141.232ZM157.592 72.32H169.672L165.432 62.68H161.832L157.592 72.32ZM189.988 85V55.88L215.388 63.36L240.748 55.88V85H226.908V79.32H230.308V65.64L220.588 68.4V85H210.148V68.4L200.428 65.64V79.32H203.828V85H189.988ZM244.738 62.68V57H292.298V67.32L281.858 65.88V62.68H261.178V68.16H278.178V73.84H261.178V79.32H281.858V76.12L292.298 74.68V85H250.738V62.68H244.738ZM299.08 85V75.8L309.52 77.32V79.32H329.76V75.8L299.08 70.96V57H340.2V66.72L329.76 65.12V62.68H309.52V66.48L340.2 71.32V85H299.08Z" fill="url(#paint0_linear_25_3921)"/>
<path d="M89.3084 62.68H88.3084V63.68H89.3084V62.68ZM89.3084 57V56H88.3084V57H89.3084ZM136.828 57H137.828V56H136.828V57ZM136.828 66.92L136.692 67.9106L137.828 68.0674V66.92H136.828ZM126.388 65.48H125.388V66.3515L126.252 66.4706L126.388 65.48ZM126.388 62.68H127.388V61.68H126.388V62.68ZM105.708 62.68V61.68H104.708V62.68H105.708ZM105.708 79.32H104.708V80.32H105.708V79.32ZM126.388 79.32V80.32H127.388V79.32H126.388ZM126.388 75.52H127.388V74.52H126.388V75.52ZM117.948 75.52H116.948V76.52H117.948V75.52ZM117.948 69.84V68.84H116.948V69.84H117.948ZM136.828 69.84H137.828V68.84H136.828V69.84ZM136.828 85V86H137.828V85H136.828ZM95.2684 85H94.2684V86H95.2684V85ZM95.2684 62.68H96.2684V61.68H95.2684V62.68ZM90.3084 62.68V57H88.3084V62.68H90.3084ZM89.3084 58H136.828V56H89.3084V58ZM135.828 57V66.92H137.828V57H135.828ZM136.965 65.9294L126.525 64.4894L126.252 66.4706L136.692 67.9106L136.965 65.9294ZM127.388 65.48V62.68H125.388V65.48H127.388ZM126.388 61.68H105.708V63.68H126.388V61.68ZM104.708 62.68V79.32H106.708V62.68H104.708ZM105.708 80.32H126.388V78.32H105.708V80.32ZM127.388 79.32V75.52H125.388V79.32H127.388ZM126.388 74.52H117.948V76.52H126.388V74.52ZM118.948 75.52V69.84H116.948V75.52H118.948ZM117.948 70.84H136.828V68.84H117.948V70.84ZM135.828 69.84V85H137.828V69.84H135.828ZM136.828 84H95.2684V86H136.828V84ZM96.2684 85V62.68H94.2684V85H96.2684ZM95.2684 61.68H89.3084V63.68H95.2684V61.68ZM141.232 85L140.316 84.5994L139.703 86H141.232V85ZM150.992 62.68L151.908 63.0806L152.521 61.68H150.992V62.68ZM146.032 62.68H145.032V63.68H146.032V62.68ZM146.032 57V56H145.032V57H146.032ZM173.832 57L174.749 56.6017L174.488 56H173.832V57ZM185.992 85V86H187.516L186.909 84.6017L185.992 85ZM175.192 85L174.275 85.3983L174.536 86H175.192V85ZM172.152 78L173.069 77.6017L172.808 77H172.152V78ZM155.112 78V77H154.456L154.195 77.6017L155.112 78ZM152.072 85V86H152.728L152.989 85.3983L152.072 85ZM157.592 72.32L156.676 71.9174L156.06 73.32H157.592V72.32ZM169.672 72.32V73.32H171.204L170.587 71.9174L169.672 72.32ZM165.432 62.68L166.347 62.2774L166.084 61.68H165.432V62.68ZM161.832 62.68V61.68H161.179L160.916 62.2774L161.832 62.68ZM142.148 85.4006L151.908 63.0806L150.076 62.2794L140.316 84.5994L142.148 85.4006ZM150.992 61.68H146.032V63.68H150.992V61.68ZM147.032 62.68V57H145.032V62.68H147.032ZM146.032 58H173.832V56H146.032V58ZM172.915 57.3983L185.075 85.3983L186.909 84.6017L174.749 56.6017L172.915 57.3983ZM185.992 84H175.192V86H185.992V84ZM176.109 84.6017L173.069 77.6017L171.235 78.3983L174.275 85.3983L176.109 84.6017ZM172.152 77H155.112V79H172.152V77ZM154.195 77.6017L151.155 84.6017L152.989 85.3983L156.029 78.3983L154.195 77.6017ZM152.072 84H141.232V86H152.072V84ZM157.592 73.32H169.672V71.32H157.592V73.32ZM170.587 71.9174L166.347 62.2774L164.516 63.0826L168.757 72.7226L170.587 71.9174ZM165.432 61.68H161.832V63.68H165.432V61.68ZM160.916 62.2774L156.676 71.9174L158.507 72.7226L162.747 63.0826L160.916 62.2774ZM189.988 85H188.988V86H189.988V85ZM189.988 55.88L190.271 54.9207L188.988 54.543V55.88H189.988ZM215.388 63.36L215.106 64.3193L215.388 64.4025L215.671 64.3191L215.388 63.36ZM240.748 55.88H241.748V54.5425L240.465 54.9208L240.748 55.88ZM240.748 85V86H241.748V85H240.748ZM226.908 85H225.908V86H226.908V85ZM226.908 79.32V78.32H225.908V79.32H226.908ZM230.308 79.32V80.32H231.308V79.32H230.308ZM230.308 65.64H231.308V64.3165L230.035 64.678L230.308 65.64ZM220.588 68.4L220.315 67.438L219.588 67.6444V68.4H220.588ZM220.588 85V86H221.588V85H220.588ZM210.148 85H209.148V86H210.148V85ZM210.148 68.4H211.148V67.6444L210.421 67.438L210.148 68.4ZM200.428 65.64L200.701 64.678L199.428 64.3165V65.64H200.428ZM200.428 79.32H199.428V80.32H200.428V79.32ZM203.828 79.32H204.828V78.32H203.828V79.32ZM203.828 85V86H204.828V85H203.828ZM190.988 85V55.88H188.988V85H190.988ZM189.706 56.8393L215.106 64.3193L215.671 62.4007L190.271 54.9207L189.706 56.8393ZM215.671 64.3191L241.031 56.8391L240.465 54.9208L215.105 62.4009L215.671 64.3191ZM239.748 55.88V85H241.748V55.88H239.748ZM240.748 84H226.908V86H240.748V84ZM227.908 85V79.32H225.908V85H227.908ZM226.908 80.32H230.308V78.32H226.908V80.32ZM231.308 79.32V65.64H229.308V79.32H231.308ZM230.035 64.678L220.315 67.438L220.861 69.362L230.581 66.602L230.035 64.678ZM219.588 68.4V85H221.588V68.4H219.588ZM220.588 84H210.148V86H220.588V84ZM211.148 85V68.4H209.148V85H211.148ZM210.421 67.438L200.701 64.678L200.155 66.602L209.875 69.362L210.421 67.438ZM199.428 65.64V79.32H201.428V65.64H199.428ZM200.428 80.32H203.828V78.32H200.428V80.32ZM202.828 79.32V85H204.828V79.32H202.828ZM203.828 84H189.988V86H203.828V84ZM244.738 62.68H243.738V63.68H244.738V62.68ZM244.738 57V56H243.738V57H244.738ZM292.298 57H293.298V56H292.298V57ZM292.298 67.32L292.161 68.3106L293.298 68.4674V67.32H292.298ZM281.858 65.88H280.858V66.7515L281.721 66.8706L281.858 65.88ZM281.858 62.68H282.858V61.68H281.858V62.68ZM261.178 62.68V61.68H260.178V62.68H261.178ZM261.178 68.16H260.178V69.16H261.178V68.16ZM278.178 68.16H279.178V67.16H278.178V68.16ZM278.178 73.84V74.84H279.178V73.84H278.178ZM261.178 73.84V72.84H260.178V73.84H261.178ZM261.178 79.32H260.178V80.32H261.178V79.32ZM281.858 79.32V80.32H282.858V79.32H281.858ZM281.858 76.12L281.721 75.1294L280.858 75.2485V76.12H281.858ZM292.298 74.68H293.298V73.5326L292.161 73.6894L292.298 74.68ZM292.298 85V86H293.298V85H292.298ZM250.738 85H249.738V86H250.738V85ZM250.738 62.68H251.738V61.68H250.738V62.68ZM245.738 62.68V57H243.738V62.68H245.738ZM244.738 58H292.298V56H244.738V58ZM291.298 57V67.32H293.298V57H291.298ZM292.435 66.3294L281.995 64.8894L281.721 66.8706L292.161 68.3106L292.435 66.3294ZM282.858 65.88V62.68H280.858V65.88H282.858ZM281.858 61.68H261.178V63.68H281.858V61.68ZM260.178 62.68V68.16H262.178V62.68H260.178ZM261.178 69.16H278.178V67.16H261.178V69.16ZM277.178 68.16V73.84H279.178V68.16H277.178ZM278.178 72.84H261.178V74.84H278.178V72.84ZM260.178 73.84V79.32H262.178V73.84H260.178ZM261.178 80.32H281.858V78.32H261.178V80.32ZM282.858 79.32V76.12H280.858V79.32H282.858ZM281.995 77.1106L292.435 75.6706L292.161 73.6894L281.721 75.1294L281.995 77.1106ZM291.298 74.68V85H293.298V74.68H291.298ZM292.298 84H250.738V86H292.298V84ZM251.738 85V62.68H249.738V85H251.738ZM250.738 61.68H244.738V63.68H250.738V61.68ZM299.08 85H298.08V86H299.08V85ZM299.08 75.8L299.224 74.8104L298.08 74.6439V75.8H299.08ZM309.52 77.32H310.52V76.4551L309.664 76.3304L309.52 77.32ZM309.52 79.32H308.52V80.32H309.52V79.32ZM329.76 79.32V80.32H330.76V79.32H329.76ZM329.76 75.8H330.76V74.9454L329.916 74.8122L329.76 75.8ZM299.08 70.96H298.08V71.8146L298.924 71.9478L299.08 70.96ZM299.08 57V56H298.08V57H299.08ZM340.2 57H341.2V56H340.2V57ZM340.2 66.72L340.049 67.7085L341.2 67.8849V66.72H340.2ZM329.76 65.12H328.76V65.9784L329.609 66.1085L329.76 65.12ZM329.76 62.68H330.76V61.68H329.76V62.68ZM309.52 62.68V61.68H308.52V62.68H309.52ZM309.52 66.48H308.52V67.3346L309.364 67.4678L309.52 66.48ZM340.2 71.32H341.2V70.4654L340.356 70.3322L340.2 71.32ZM340.2 85V86H341.2V85H340.2ZM300.08 85V75.8H298.08V85H300.08ZM298.936 76.7896L309.376 78.3096L309.664 76.3304L299.224 74.8104L298.936 76.7896ZM308.52 77.32V79.32H310.52V77.32H308.52ZM309.52 80.32H329.76V78.32H309.52V80.32ZM330.76 79.32V75.8H328.76V79.32H330.76ZM329.916 74.8122L299.236 69.9722L298.924 71.9478L329.604 76.7878L329.916 74.8122ZM300.08 70.96V57H298.08V70.96H300.08ZM299.08 58H340.2V56H299.08V58ZM339.2 57V66.72H341.2V57H339.2ZM340.352 65.7315L329.912 64.1315L329.609 66.1085L340.049 67.7085L340.352 65.7315ZM330.76 65.12V62.68H328.76V65.12H330.76ZM329.76 61.68H309.52V63.68H329.76V61.68ZM308.52 62.68V66.48H310.52V62.68H308.52ZM309.364 67.4678L340.044 72.3078L340.356 70.3322L309.676 65.4922L309.364 67.4678ZM339.2 71.32V85H341.2V71.32H339.2ZM340.2 84H299.08V86H340.2V84Z" fill="black" mask="url(#path-7-outside-1_25_3921)"/>
<defs>
<linearGradient id="paint0_linear_25_3921" x1="216.555" y1="22" x2="216.555" y2="125" gradientUnits="userSpaceOnUse">
<stop stop-color="white"/>
<stop offset="1" stop-color="#999999"/>
</linearGradient>
</defs>
</svg>
