<svg width="67" height="66" viewBox="0 0 67 66" fill="none" xmlns="http://www.w3.org/2000/svg">
<path d="M21.244 39.3822C22.2795 42.5037 25.9899 42.6647 27.7157 42.355V47C24.3258 45.6375 16.9912 41.2774 14.7724 34.7372C9.96487 13.7419 28.8251 7.98206 37.5156 10.5833C61.3683 20.6165 48.2401 44.5846 38.6251 46.2568C37.8854 47.1487 37.5773 46.2568 37.5156 45.6994C37.6635 41.9834 36.5911 38.3294 36.0364 36.9668C46.8348 35.0345 44.7269 26.7479 42.3231 22.8461C42.9395 21.3597 43.8024 18.2382 42.3231 17.6437C40.8439 17.0491 38.0087 18.6346 36.776 19.5017C34.2613 18.6098 29.688 19.1301 27.7157 19.5017C26.2365 18.3869 23.1301 16.4546 22.5384 17.6437C21.9467 18.8328 22.2918 21.6074 22.5384 22.8461C15.8818 34.5514 29.3798 36.5952 28.8251 36.9668C28.3813 37.2641 27.9006 38.9487 27.7157 39.7538C26.483 39.8158 23.7218 39.4937 22.5384 37.71C21.355 35.9264 19.3334 35.9759 18.4705 36.2236C19.1485 36.6572 20.6523 37.8958 21.244 39.3822Z" stroke="#A763FF" stroke-width="1.5"/>
</svg>
