<svg width="61" height="60" viewBox="0 0 61 60" fill="none" xmlns="http://www.w3.org/2000/svg">
<path d="M12.5 24.8C12.5 20.3196 12.5 18.0794 13.3719 16.3681C14.1389 14.8628 15.3628 13.6389 16.8681 12.8719C18.5794 12 20.8196 12 25.3 12H35.7C40.1804 12 42.4206 12 44.1319 12.8719C45.6372 13.6389 46.8611 14.8628 47.6281 16.3681C48.5 18.0794 48.5 20.3196 48.5 24.8V35.2C48.5 39.6804 48.5 41.9206 47.6281 43.6319C46.8611 45.1372 45.6372 46.3611 44.1319 47.1281C42.4206 48 40.1804 48 35.7 48H25.3C20.8196 48 18.5794 48 16.8681 47.1281C15.3628 46.3611 14.1389 45.1372 13.3719 43.6319C12.5 41.9206 12.5 39.6804 12.5 35.2V24.8Z" stroke="#A763FF" stroke-width="1.5"/>
<path d="M37.75 30C37.75 29.5858 38.0858 29.25 38.5 29.25C38.9142 29.25 39.25 29.5858 39.25 30L37.75 30ZM30.5 37.25C34.5041 37.25 37.75 34.0041 37.75 30L39.25 30C39.25 34.8325 35.3325 38.75 30.5 38.75L30.5 37.25ZM23.25 30C23.25 34.0041 26.4959 37.25 30.5 37.25L30.5 38.75C25.6675 38.75 21.75 34.8325 21.75 30L23.25 30Z" fill="#A763FF"/>
<path d="M30.5 38C34.9183 38 38.5 34.4183 38.5 30C38.5 28.3314 37.9892 26.7821 37.1153 25.5C35.6753 23.3872 33.2497 22 30.5 22C26.0817 22 22.5 25.5817 22.5 30" stroke="url(#paint0_linear_23_3839)" stroke-width="1.5" stroke-linecap="round" stroke-linejoin="round"/>
<circle cx="41.5" cy="19" r="2" stroke="#A763FF" stroke-width="1.5"/>
<defs>
<linearGradient id="paint0_linear_23_3839" x1="22" y1="29.5" x2="39.5" y2="35.5" gradientUnits="userSpaceOnUse">
<stop offset="0.106465" stop-color="#A763FF"/>
<stop offset="1" stop-color="#A763FF" stop-opacity="0"/>
</linearGradient>
</defs>
</svg>
