<svg width="107" height="106" viewBox="0 0 107 106" fill="none" xmlns="http://www.w3.org/2000/svg">
<g clip-path="url(#clip0_34_12594)">
<rect width="66" height="57" transform="matrix(-1 0 0 1 90 25)" fill="#27063B"/>
<path d="M95.63 33.2775H91.2313V24.5088H86.8613V20.1388H82.4625V15.7688H73.7225V11.37H64.9537V7H43.0462V11.37H34.2775V15.7688H25.5088V20.1388H21.1388V24.5088H16.7688V33.2775H12.37V42.0462H8V63.9537H12.37V72.7225H16.7688V81.4625H21.1388V85.8613H25.5088V90.2313H34.2775V94.63H43.0462V99H64.9537V94.63H73.7225V90.2313H82.4625V85.8613H86.8613V81.4625H91.2313V72.7225H95.63V63.9537H100V42.0462H95.63V33.2775ZM82.4625 68.3237H78.0925V72.7225H73.7225V77.0925H60.5838V72.7225H64.9537V68.3237H69.3237V63.9537H64.9537V59.5838H47.4162V68.3237H43.0462V63.9537H38.6763V59.5838H34.2775V55.185H29.9075V50.815H25.5088V46.4162H29.9075V42.0462H34.2775V37.6763H38.6763V33.2775H43.0462V28.9075H47.4162V37.6763H73.7225V42.0462H78.0925V46.4162H82.4625V68.3237Z" fill="url(#paint0_linear_34_12594)"/>
</g>
<defs>
<linearGradient id="paint0_linear_34_12594" x1="54" y1="99" x2="54" y2="7" gradientUnits="userSpaceOnUse">
<stop stop-color="#E04F41"/>
<stop offset="1" stop-color="#B62CD5"/>
</linearGradient>
<clipPath id="clip0_34_12594">
<rect width="92" height="92" fill="white" transform="translate(8 7)"/>
</clipPath>
</defs>
</svg>
