<?xml version="1.0" encoding="utf-8"?>
<!-- Generator: Adobe Illustrator 25.2.0, SVG Export Plug-In . SVG Version: 6.00 Build 0)  -->
<svg version="1.1" id="Layer_1" xmlns="http://www.w3.org/2000/svg" xmlns:xlink="http://www.w3.org/1999/xlink" x="0px" y="0px"
	 viewBox="0 0 242.4 99" style="enable-background:new 0 0 242.4 99;" xml:space="preserve">
<style type="text/css">
	.st0{fill:#003259;fill-opacity:0.26;}
	.st1{fill:url(#SVGID_1_);}
	.st2{fill:url(#SVGID_2_);}
</style>
<path class="st0" d="M199.5,4.8h32.3l9.8,17.1v64.6l-6.5,11.4h-65.3L164,87.7H10.5L4.1,76.5V16.9l6.8-11.8h68.4l7.1,17.6h104.4
	L199.5,4.8z"/>
<linearGradient id="SVGID_1_" gradientUnits="userSpaceOnUse" x1="3.4463" y1="48.8898" x2="242.446" y2="48.8898" gradientTransform="matrix(1 0 0 -1 0 99.8898)">
	<stop  offset="0" style="stop-color:#DF4E45"/>
	<stop  offset="1" style="stop-color:#BD32BB"/>
</linearGradient>
<path class="st1" d="M235.4,99h-65.9l-5.8-10.2H10.4l-7-12.1V15.9l7.2-12.6h69.1l7.1,17.6h103.4L199.1,3h33l10.3,18v65.8L235.4,99z
	 M170.2,96.1h64.5l6.1-10.5V22.2l-9.3-16.3h-31.5l-8.8,17.9H86L79,6.2H11.4L5.1,17.1v58.4l6,10.4h153.2L170.2,96.1z"/>
<linearGradient id="SVGID_2_" gradientUnits="userSpaceOnUse" x1="0.9463" y1="74.2182" x2="59.0179" y2="74.2182" gradientTransform="matrix(1 0 0 -1 0 99.8898)">
	<stop  offset="0" style="stop-color:#DF4E45"/>
	<stop  offset="1" style="stop-color:#BD32BB"/>
</linearGradient>
<path class="st2" d="M7.2,51.3H0.9V14.8L10,0h49v10.2H12.6L7.2,19V51.3z"/>
</svg>
