<?xml version="1.0" encoding="utf-8"?>
<!-- Generator: Adobe Illustrator 25.2.0, SVG Export Plug-In . SVG Version: 6.00 Build 0)  -->
<svg version="1.1" id="pending" xmlns="http://www.w3.org/2000/svg" xmlns:xlink="http://www.w3.org/1999/xlink" x="0px" y="0px"
	 viewBox="0 0 50 50" style="enable-background:new 0 0 50 50;" xml:space="preserve">
<style type="text/css">
	.st0{fill:#C7DA2C;}
</style>
<path class="st0" d="M25,1c-2.9,0-5.7,0.5-8.3,1.5l0.7,1.9C19.8,3.5,22.4,3,25,3c12.1,0,22,9.9,22,22s-9.9,22-22,22S3,37.1,3,25
	c0-6.6,2.9-12.8,8-17v7h2V5H3v2h6.1C4,11.6,1,18.1,1,25c0,13.2,10.8,24,24,24s24-10.8,24-24S38.2,1,25,1z"/>
<path class="st0" d="M19,33h-2v2h16v-2h-2v-3.4L26.4,25l4.6-4.6V17h2v-2H17v2h2v3.4l4.6,4.6L19,29.6V33z M21,19.6V17h8v2.6l-4,4
	L21,19.6z M25,26.4l4,4V33h-8v-2.6C21,30.4,25,26.4,25,26.4z M19,39h2v2h-2V39z M24,39h2v2h-2V39z M29,39h2v2h-2V39z"/>
</svg>
