<svg width="527" height="150" viewBox="0 0 527 150" fill="none" xmlns="http://www.w3.org/2000/svg">
<path d="M1.19336 147.745V18.5L19.0982 0.959473H524.016V147.745H1.19336Z" fill="#27063B"/>
<path d="M527 150H374.724H361.563H0V69.3675V17.5L16.3281 0.296589H172.103H189.776H422.792L440.878 0H527V17.7485V78.8283V150ZM376.28 147.265C390.475 147.382 398.433 147.406 412.628 147.265H448.977H521.673L523.229 78.8283L522.225 17.7485L521.673 3.0317L442.61 2.73511L426.479 3.0317H189.776H170.147H17.8863L3.75768 17.5V68.2358V147.265H191.155H363.772H376.28Z" fill="url(#paint0_linear_92_8079)"/>
<defs>
<linearGradient id="paint0_linear_92_8079" x1="-1.01455e-07" y1="45.1783" x2="538.418" y2="45.1783" gradientUnits="userSpaceOnUse">
<stop stop-color="#DF4E45"/>
<stop offset="1" stop-color="#BD32BB"/>
</linearGradient>
</defs>
</svg>
