<svg width="36" height="31" viewBox="0 0 36 31" fill="none" xmlns="http://www.w3.org/2000/svg">
<g clip-path="url(#clip0_39_14343)">
<g style="mix-blend-mode:screen" opacity="0.71">
<path d="M35.7917 25.8485L32.6591 29.6984L22.3889 29.6984L21.4569 28.5531L1.3725 28.5531L0.311821 27.2496L0.311822 17.6617L1.35762 16.3764L1.35762 9.86474L0.29444 8.55817L0.29444 3.82195L1.30937 2.57485L32.778 2.57485L35.6249 6.07352L35.6249 16.1023L34.836 17.0719L34.836 22.145L35.8293 23.3658L35.7917 25.8485Z" fill="#003259"/>
</g>
<path d="M1.28222 2.49438L32.8051 2.49439L32.8243 2.51795L35.6904 6.04022L35.6904 16.1357L34.9014 17.1053L34.9014 22.1117L35.8953 23.3331L35.8566 25.8825L35.8379 25.9054L32.6861 29.7788L22.3616 29.7788L21.4298 28.6336L1.34533 28.6336L0.246289 27.283L0.24629 17.6283L1.29213 16.3431L1.29214 9.89803L0.228953 8.5914L0.228953 3.78866L1.28222 2.49438ZM32.7509 2.65526L1.33647 2.65525L0.359912 3.85537L0.359912 8.5248L1.42311 9.83138L1.4231 16.4098L0.377252 17.6951L0.377251 27.2163L1.39965 28.4728L21.4841 28.4728L22.4159 29.6179L32.6319 29.6179L35.7267 25.8146L35.7633 23.3985L34.7705 22.1783L34.7705 17.0387L35.5595 16.069L35.5595 6.10688L32.7509 2.65526Z" fill="#FFAB0F"/>
<path d="M30.0771 2.21293L32.9001 2.21293L35.9197 5.92367L35.9197 16.1024L35.3305 16.1024L35.3305 6.22357L32.6562 2.93679L30.0771 2.93679L30.0771 2.21293Z" fill="#FFAB0F"/>
<path d="M1.10107 2.31886L1.51767 2.83083L0.589088 3.97199L0.589087 8.40813L1.56592 9.60876L1.14946 10.1207L-6.75485e-05 8.70803L-6.69696e-05 3.67209L1.10107 2.31886Z" fill="#FFAB0F"/>
<path d="M0.0173331 17.6617L0.60635 17.6617L0.606349 27.0998L1.4946 28.1912L2.97827 28.1912L2.97827 28.9152L1.25057 28.9152L0.017332 27.3997L0.0173331 17.6617Z" fill="#FFAB0F"/>
<path d="M35.5834 25.5925L36 26.1045L32.7811 30.0603L22.2668 30.0603L21.335 28.9152L19.0803 28.9152L19.0803 28.1912L21.5791 28.1912L22.5109 29.3364L32.5371 29.3364L35.5834 25.5925Z" fill="#FFAB0F"/>
<path d="M11.3758 29.2604L15.1666 29.2604L15.8539 30.1051L20.9458 30.1051L20.9458 30.1856L15.8268 30.1856L15.1395 29.3409L11.4029 29.3409L10.6337 30.286L7.60641 30.286L7.02546 31L1.37444 31L1.37444 30.9195L6.99834 30.9195L7.57929 30.2056L10.6066 30.2056L11.3758 29.2604Z" fill="#FFAB0F"/>
<path d="M6.55879 30.4105L7.04004 29.819L6.36022 29.819L5.87897 30.4105L6.55879 30.4105Z" fill="#FFAB0F"/>
<path d="M5.19917 30.4105L5.68042 29.819L5.0006 29.819L4.51935 30.4105L5.19917 30.4105Z" fill="#FFAB0F"/>
<path d="M2.47968 30.4105L2.96094 29.819L2.28112 29.819L1.79987 30.4105L2.47968 30.4105Z" fill="#FFAB0F"/>
<path d="M3.83955 30.4105L4.3208 29.819L3.64084 29.819L3.15973 30.4105L3.83955 30.4105Z" fill="#FFAB0F"/>
<path d="M0.0556139 15.7701L0.536865 16.3616L0.536865 15.5261L0.055614 14.9347L0.0556139 15.7701Z" fill="#FFAB0F"/>
<path d="M0.0556139 14.0992L0.536865 14.6907L0.536865 13.8551L0.055614 13.2636L0.0556139 14.0992Z" fill="#FFAB0F"/>
<path d="M0.0556139 10.7573L0.536865 11.3487L0.536865 10.5133L0.055614 9.92185L0.0556139 10.7573Z" fill="#FFAB0F"/>
<path d="M0.0556139 12.4282L0.536865 13.0196L0.536865 12.1842L0.055614 11.5927L0.0556139 12.4282Z" fill="#FFAB0F"/>
<path d="M35.8889 17.8977L35.4111 17.302L35.4061 18.1374L35.8839 18.7331L35.8889 17.8977Z" fill="#FFAB0F"/>
<path d="M35.8694 21.2395L35.3916 20.6438L35.3866 21.4792L35.8644 22.0749L35.8694 21.2395Z" fill="#FFAB0F"/>
<path d="M35.8789 19.5686L35.4011 18.9729L35.3963 19.8083L35.874 20.404L35.8789 19.5686Z" fill="#FFAB0F"/>
<path d="M7.62551 29.7431L20.9131 29.7431L20.9131 29.6626L7.62551 29.6626L7.62551 29.7431Z" fill="#FFAB0F"/>
<path d="M13.5386 -3.01801e-05L20.9567 -2.96869e-05L22.3803 1.74965L25.7513 1.74965L26.3923 2.53725L26.2997 2.65106L25.6971 1.91045L22.3261 1.91045L20.9025 0.160943L13.5929 0.160943L12.1693 1.91045L8.79828 1.91045L8.19563 2.65106L8.10302 2.53725L8.74405 1.74965L12.1149 1.74965L13.5386 -3.01801e-05Z" fill="#FFAB0F"/>
</g>
<defs>
<clipPath id="clip0_39_14343">
<rect width="36" height="31" fill="white" transform="translate(36 31) rotate(-180)"/>
</clipPath>
</defs>
</svg>
