<svg width="61" height="60" viewBox="0 0 61 60" fill="none" xmlns="http://www.w3.org/2000/svg">
<path d="M-nan -nanL48.5 18.5516C47.8576 18.844 47.1919 19.0902 46.5061 19.287C45.9898 19.4352 45.649 18.6679 46.0004 18.2616C46.3899 17.8113 46.7279 17.313 47.0045 16.7764C47.2157 16.3669 46.7594 15.9864 46.3459 16.1896C45.3209 16.693 44.2306 17.0798 43.0917 17.3331C42.9204 17.3712 42.7435 17.3117 42.6203 17.1867C41.2873 15.8349 39.4475 15 37.424 15C32.8743 15 29.4757 19.1532 30.1089 23.6478C30.1551 23.9761 29.8996 24.2812 29.5693 24.2537C23.9595 23.7853 18.9737 21.0575 15.4768 16.957C15.2471 16.6876 14.8169 16.7225 14.6726 17.0458C13.4295 19.8304 13.956 23.1414 16.0005 25.3766C16.3379 25.7455 16.0835 26.3731 15.6018 26.2395C15.2921 26.1536 14.9903 26.0476 14.6982 25.923C14.3498 25.7744 13.9416 26.0109 13.9761 26.388C14.2051 28.8949 15.7056 31.1849 17.9311 32.3715C18.3942 32.6184 18.3506 33.3439 17.8259 33.3363C17.6736 33.3341 17.5204 33.327 17.3665 33.3149C16.9887 33.2853 16.6768 33.64 16.8288 33.9872C17.7851 36.1715 19.7234 37.8062 22.0678 38.3036C22.5249 38.4006 22.7124 39.0147 22.3228 39.2727C20.0169 40.7997 17.3584 41.6328 14.6253 41.6999C14.0972 41.7128 13.867 42.4315 14.3355 42.6755C17.1854 44.1596 20.4077 45 23.822 45C37.4213 45 45.1537 33.32 44.8244 22.7374C44.8193 22.5713 44.8949 22.4135 45.0266 22.3122C46.3804 21.2713 47.5588 19.9948 48.5 18.5516L-nan -nanL-nan -nanZ" stroke="url(#paint0_linear_23_3846)" stroke-width="1.5" stroke-linecap="round" stroke-linejoin="round"/>
<path d="M23.822 45C20.8595 45 18.0416 44.3673 15.4861 43.2304C14.6022 42.8372 14.1602 42.6406 14.0858 42.448C14.0197 42.2772 14.0474 42.098 14.1619 41.9551C14.291 41.7939 14.8272 41.7335 15.8996 41.6126C17.9103 41.386 19.8556 40.7418 21.6212 39.7096C22.1816 39.382 22.4617 39.2182 22.5239 39.0507C22.5817 38.8947 22.5671 38.752 22.4787 38.6111C22.3837 38.4597 22.0127 38.3351 21.2707 38.086C19.3294 37.4343 17.7423 35.9813 16.8831 34.1084C16.8455 34.0263 16.8266 33.9853 16.8159 33.946C16.7339 33.6471 16.9365 33.3498 17.2446 33.3167C17.2851 33.3123 17.3671 33.3169 17.531 33.326V33.326C17.6732 33.3339 17.7443 33.3378 17.7965 33.3297C18.2107 33.2649 18.3665 32.7526 18.0583 32.4682C18.0195 32.4324 17.895 32.3586 17.6459 32.2111C15.6683 31.0395 14.3172 28.9765 14.0114 26.701C13.9798 26.4656 13.9639 26.3479 13.9887 26.2528C14.0448 26.0371 14.2369 25.8845 14.4597 25.8788C14.5579 25.8763 14.6962 25.9287 14.9726 26.0335V26.0335C15.3609 26.1806 15.555 26.2542 15.678 26.239C15.9591 26.204 16.1568 25.938 16.1092 25.6588C16.0884 25.5366 15.9214 25.319 15.5873 24.8838C13.979 22.7889 13.5606 19.949 14.5035 17.4563C14.6269 17.13 14.6886 16.9669 14.8205 16.878C14.9299 16.8042 15.0846 16.7757 15.2131 16.8055C15.368 16.8415 15.5014 16.9915 15.7683 17.2917C19.1639 21.111 23.8791 23.6721 29.1746 24.2169C29.5183 24.2522 29.6902 24.2699 29.8134 24.214C29.9267 24.1625 30.0062 24.0841 30.0591 23.9715C30.1167 23.849 30.099 23.6507 30.0636 23.2542C29.6755 18.9136 33.0074 15 37.424 15C39.3872 15 41.1775 15.7858 42.4998 17.0672C42.6299 17.1933 42.695 17.2564 42.7624 17.2906C42.8238 17.3218 42.8852 17.3387 42.9539 17.3435C43.0293 17.3488 43.1052 17.331 43.2571 17.2953C44.1191 17.093 44.9525 16.814 45.75 16.4658C46.2214 16.26 46.4571 16.1571 46.6166 16.1928C46.821 16.2385 46.9917 16.4371 47.0062 16.6461C47.0175 16.8092 46.9045 16.9883 46.6786 17.3465C46.5167 17.6032 46.3401 17.8492 46.1499 18.0833C45.8781 18.4177 45.7423 18.5849 45.7253 18.6124C45.4808 19.0084 45.7753 19.4458 46.2342 19.3681C46.2661 19.3627 46.4261 19.3138 46.746 19.2159V19.2159C46.894 19.1706 46.9681 19.148 47.0002 19.1425C47.4297 19.0703 47.7393 19.5394 47.5039 19.9058C47.4863 19.9332 47.4476 19.9791 47.3702 20.0708C46.6122 20.9687 45.7537 21.7765 44.8145 22.4723" stroke="#A763FF" stroke-width="1.5" stroke-linecap="round"/>
<defs>
<linearGradient id="paint0_linear_23_3846" x1="25" y1="45" x2="41.928" y2="21.507" gradientUnits="userSpaceOnUse">
<stop offset="0.0721609" stop-color="#A763FF" stop-opacity="0"/>
<stop offset="0.676942" stop-color="#A763FF"/>
</linearGradient>
</defs>
</svg>
