<svg width="61" height="60" viewBox="0 0 61 60" fill="none" xmlns="http://www.w3.org/2000/svg">
<path d="M12.5 24.8C12.5 20.3196 12.5 18.0794 13.3719 16.3681C14.1389 14.8628 15.3628 13.6389 16.8681 12.8719C18.5794 12 20.8196 12 25.3 12H35.7C40.1804 12 42.4206 12 44.1319 12.8719C45.6372 13.6389 46.8611 14.8628 47.6281 16.3681C48.5 18.0794 48.5 20.3196 48.5 24.8V35.2C48.5 39.6804 48.5 41.9206 47.6281 43.6319C46.8611 45.1372 45.6372 46.3611 44.1319 47.1281C42.4206 48 40.1804 48 35.7 48H25.3C20.8196 48 18.5794 48 16.8681 47.1281C15.3628 46.3611 14.1389 45.1372 13.3719 43.6319C12.5 41.9206 12.5 39.6804 12.5 35.2V24.8Z" stroke="#A763FF" stroke-width="1.5"/>
<path d="M37.5582 29.0938L25.9229 23.664C25.2599 23.3546 24.5 23.8386 24.5 24.5702V35.4298C24.5 36.1614 25.2599 36.6454 25.9229 36.336L37.5582 30.9062C38.3277 30.5471 38.3277 29.4529 37.5582 29.0938Z" stroke="url(#paint0_linear_23_3835)" stroke-width="1.5" stroke-linecap="round" stroke-linejoin="round"/>
<path d="M35.5 31.8667L26.7766 35.9376C26.0198 36.2907 25.6415 36.4673 25.3352 36.4161C25.0676 36.3714 24.8296 36.2199 24.6759 35.9963C24.5 35.7404 24.5 35.3228 24.5 34.4877V30" stroke="#A763FF" stroke-width="1.5" stroke-linecap="round"/>
<defs>
<linearGradient id="paint0_linear_23_3835" x1="24.5" y1="27" x2="29" y2="23" gradientUnits="userSpaceOnUse">
<stop stop-color="#A763FF" stop-opacity="0"/>
<stop offset="1" stop-color="#A763FF"/>
</linearGradient>
</defs>
</svg>
