<?xml version="1.0" encoding="utf-8"?>
<!-- Generator: Adobe Illustrator 25.2.0, SVG Export Plug-In . SVG Version: 6.00 Build 0)  -->
<svg version="1.1" id="layer" xmlns="http://www.w3.org/2000/svg" xmlns:xlink="http://www.w3.org/1999/xlink" x="0px" y="0px"
	 viewBox="0 0 418.3 183" style="enable-background:new 0 0 418.3 183;" xml:space="preserve">
<style type="text/css">
	.st0{clip-path:url(#SVGID_2_);}
	.st1{fill:#666FF8;enable-background:new    ;}
</style>
<desc>Created with Sketch.</desc>
<g>
	<g>
		<defs>
			<path id="SVGID_1_" d="M-88.7,18.9l55,54.9c8.6,8.7,8.6,22.7,0,31.4l-55.1,55.1c-8.6,8.7-22.7,8.7-31.4,0l-54.9-55
				c-8.6-8.6-8.6-22.7,0-31.4l55-55C-111.4,10.3-97.4,10.3-88.7,18.9L-88.7,18.9z M-108.1,32.8l-0.2,0.2l-52.6,52.6
				c-2.1,2.1-2.2,5.4-0.2,7.6l0.2,0.2l52.6,52.6c2.1,2.1,5.4,2.2,7.6,0.2l52.8-52.8c2.2-2.2,2.2-5.7,0-7.8L-100.5,33
				C-102.6,31-105.9,30.9-108.1,32.8L-108.1,32.8z M-103.5,56l32.6,32.5c0.6,0.6,0.6,1.4,0,2l-32.6,32.6c-0.6,0.6-1.4,0.6-2,0
				L-138,90.6c-0.6-0.6-0.6-1.4,0-2l32.6-32.6C-104.9,55.5-104,55.5-103.5,56L-103.5,56z"/>
		</defs>
		<clipPath id="SVGID_2_">
			<use xlink:href="#SVGID_1_"  style="overflow:visible;"/>
		</clipPath>
		<g class="st0">
			
				<image style="display:none;overflow:visible;enable-background:new    ;" width="52" height="51" xlink:href="E300D74F.jpeg"  transform="matrix(3.2278 0 0 -3.2278 -186.5017 171.9847)">
			</image>
		</g>
	</g>
</g>
<path class="st1" d="M44,31.5L0,147.7h20.5l9.9-26.5h50.2l10,26.5h20.9l-44-116.2L44,31.5L44,31.5z M55.3,54.5l18.5,48.6H37.2
	L55.3,54.5z M188.1,131.2h-44.8l44.3-53.7V62.8h-68.1v16.5h45l-45.7,53.9v14.6h69.3V131.2z M207.5,126.4c0,17.3,8.7,22.3,25,22.3
	c5,0,9.9-0.5,13.4-1.1v-16.3c-2.9,0.3-4.7,0.5-7.9,0.5c-7,0-11.3-0.8-11.3-8.4v-44h17.8V62.9h-17.8V38h-19.1v24.9h-11.8v16.5h11.8
	v47H207.5z M294.7,149.5c17,0,30.4-8.9,36.4-23.8l-16.7-6.3c-2.6,8.7-10.2,13.6-19.7,13.6c-12.5,0-21.2-8.9-22.7-23.5h59.6v-6.4
	c0-23.3-13.1-41.9-37.7-41.9c-23.6,0-40.5,19.3-40.5,44.2C253.4,131.6,270.4,149.5,294.7,149.5L294.7,149.5z M293.8,77.5
	c12.3,0,18.1,8.1,18.3,17.5h-39C276,83.5,283.7,77.5,293.8,77.5L293.8,77.5z M360.3,105.3c0-17.3,9.1-27.5,22.3-27.5
	c10.4,0,16.7,7,19.1,16.2l16.3-8.9c-4.5-13.6-17.2-24-35.5-24c-24.3,0-41.8,18-41.8,44.2s17.5,44.2,41.8,44.2
	c18.5,0,31.4-10.9,35.8-24.6l-16.7-8.4c-2.4,9.4-8.7,16.2-19.1,16.2C369.4,132.7,360.3,122.7,360.3,105.3L360.3,105.3z"/>
</svg>
