<?xml version="1.0" encoding="utf-8"?>
<!-- Generator: Adobe Illustrator 25.2.0, SVG Export Plug-In . SVG Version: 6.00 Build 0)  -->
<svg version="1.1" id="Layer_1" xmlns="http://www.w3.org/2000/svg" xmlns:xlink="http://www.w3.org/1999/xlink" x="0px" y="0px"
	 viewBox="0 0 588 104" style="enable-background:new 0 0 588 104;" xml:space="preserve">
<style type="text/css">
	.st0{clip-path:url(#SVGID_2_);}
	.st1{fill:#4779FF;}
</style>
<g>
	<defs>
		<rect id="SVGID_1_" y="0" width="588" height="103.5"/>
	</defs>
	<clipPath id="SVGID_2_">
		<use xlink:href="#SVGID_1_"  style="overflow:visible;"/>
	</clipPath>
	<g class="st0">
		<path class="st1" d="M52,7.8c-2.2,2.1-4.4,4.1-6.6,6.1C35.3,23.3,25.2,32.7,15,42.1c-2.3,2.2-4.7,4.2-7.7,5.5
			c-3.5,1.5-5.5,0.6-6.6-3.2C-0.8,39.2,0,34.3,3.1,29.8c2.6-3.8,5.8-7,9.1-10.1c5.3-4.9,10.6-9.8,16-14.7c2.4-2.1,4.9-4,8.1-4.7
			C45.8-1.6,51.8,7.5,52,7.8L52,7.8z"/>
		<path class="st1" d="M6.5,55.7c5.8-1.7,10.1-5.3,14.3-9.2C34.2,34.3,47.6,22,61,9.9c3-2.7,6.1-5.3,9.4-7.5
			c4.2-2.9,8.8-3.3,13.3-0.5c1.6,1,3.2,2.1,4.5,3.5c4.6,4.7,9.1,9.6,13.5,14.5c4.7,5.2,9.3,10.5,13.8,15.9c1.5,1.8,2.8,4,3.8,6.2
			c1.9,4.1,1.4,8.1-0.9,11.9c-2.1,3.4-4.9,6.2-7.9,8.8C99.2,72.9,87.8,83.2,76.2,93.4c-3.1,2.7-6.5,5.2-10,7.4
			c-6.6,4.1-13.3,3.6-19.3-1.3c-3.5-2.8-6.8-6-9.9-9.3C27.2,79.4,17.7,68.4,8,57.5C7.5,56.9,7.1,56.4,6.5,55.7L6.5,55.7z"/>
		<path class="st1" d="M204.8,2.1h14.5v78.8h-14.5v-6.6c-4.3,5.5-10.4,8.2-18.2,8.2c-7.9,0-14.1-2.9-19.4-8.6s-8.1-12.8-8.1-21.1
			c0-8.3,2.7-15.4,8.1-21.1s11.8-8.6,19.4-8.6s14,2.7,18.2,8.2V2.1L204.8,2.1z M178.1,64.2c3,3,6.7,4.4,11.2,4.4s8.2-1.5,11.2-4.4
			c2.9-3,4.4-6.8,4.4-11.4c0-4.6-1.5-8.5-4.4-11.4c-2.9-3-6.6-4.4-11.2-4.4s-8.2,1.5-11.2,4.4c-3,3-4.5,6.8-4.5,11.4
			C173.6,57.5,175.1,61.3,178.1,64.2z"/>
		<path class="st1" d="M267.9,24.7h15.5L262.9,81c-2.9,8-6.8,13.9-11.7,17.5c-4.8,3.6-10.9,5.3-18.1,4.9V90c3.9,0.1,7-0.7,9.3-2.5
			c2.3-1.7,4.1-4.5,5.5-8.3l-23.1-54.5h15.9l14.7,37.8L267.9,24.7L267.9,24.7z"/>
		<path class="st1" d="M320.4,23.1c6.2,0,11.2,2.1,15.3,6.2c4,4.1,6,9.8,6,17.1v34.6h-14.5V48.2c0-3.7-1-6.6-3-8.6c-2-2-4.7-3-8.1-3
			c-3.8,0-6.8,1.2-9,3.5c-2.2,2.3-3.4,5.8-3.4,10.5v30.4h-14.5V24.6h14.5v6.3C307.1,25.7,312.7,23.1,320.4,23.1L320.4,23.1z"/>
		<path class="st1" d="M394.6,24.7h14.5v56.3h-14.5v-6.6c-4.4,5.5-10.5,8.2-18.4,8.2s-13.9-2.9-19.3-8.6s-8.1-12.8-8.1-21.1
			c0-8.3,2.7-15.4,8.1-21.1c5.4-5.7,11.8-8.6,19.3-8.6c7.9,0,14,2.7,18.4,8.2V24.7L394.6,24.7z M367.8,64.2c2.9,3,6.6,4.4,11.2,4.4
			c4.5,0,8.2-1.5,11.2-4.4c3-3,4.5-6.8,4.5-11.4c0-4.6-1.5-8.5-4.5-11.4c-3-3-6.7-4.4-11.2-4.4c-4.5,0-8.2,1.5-11.2,4.4
			c-2.9,3-4.4,6.8-4.4,11.4C363.4,57.5,364.8,61.3,367.8,64.2z"/>
		<path class="st1" d="M480.6,23.1c6.5,0,11.6,2.1,15.5,6.3c3.9,4.2,5.8,9.8,5.8,16.9v34.7h-14.5V47.3c0-3.4-0.8-6-2.5-7.9
			c-1.7-1.9-4-2.8-7-2.8c-3.3,0-5.9,1.1-7.7,3.3c-1.8,2.2-2.8,5.3-2.8,9.5V81h-14.5V47.3c0-3.4-0.8-6-2.5-7.9c-1.7-1.9-4-2.8-7-2.8
			c-3.2,0-5.8,1.1-7.7,3.3c-1.9,2.2-2.9,5.3-2.9,9.5V81h-14.5V24.7h14.5v6c3.4-5,8.6-7.5,15.7-7.5c7.1,0,12,2.7,15.3,8.1
			C467.6,25.8,473.2,23.1,480.6,23.1L480.6,23.1z"/>
		<path class="st1" d="M518.3,17.9c-2.4,0-4.5-0.9-6.3-2.6c-1.8-1.8-2.7-3.8-2.7-6.2c0-2.4,0.9-4.5,2.7-6.3c1.8-1.8,3.8-2.7,6.3-2.7
			c2.4,0,4.6,0.9,6.4,2.7c1.8,1.8,2.6,3.9,2.6,6.3c0,2.4-0.9,4.5-2.6,6.2C522.9,17,520.8,17.9,518.3,17.9z M511.1,80.9V24.7h14.5
			v56.3H511.1z"/>
		<path class="st1" d="M562.5,82.5c-8.5,0-15.6-2.8-21.2-8.6c-5.7-5.7-8.5-12.8-8.5-21.2s2.8-15.5,8.5-21.2
			c5.7-5.7,12.8-8.6,21.2-8.6c5.5,0,10.5,1.3,15,3.9c4.5,2.6,7.9,6.2,10.3,10.6l-12.5,7.3c-1.1-2.3-2.8-4.2-5.1-5.5
			c-2.3-1.4-4.9-2-7.7-2c-4.4,0-8,1.4-10.8,4.3c-2.9,2.9-4.3,6.6-4.3,11.1s1.4,8.1,4.3,11c2.9,2.9,6.5,4.3,10.8,4.3
			c2.9,0,5.5-0.7,7.8-2c2.3-1.3,4-3.1,5.1-5.5l12.6,7.2c-2.5,4.4-6,8-10.5,10.6C573,81.2,568,82.5,562.5,82.5L562.5,82.5z"/>
	</g>
</g>
</svg>
