<?xml version="1.0" encoding="utf-8"?>
<!-- Generator: Adobe Illustrator 25.2.0, SVG Export Plug-In . SVG Version: 6.00 Build 0)  -->
<svg version="1.1" id="Layer_1" xmlns="http://www.w3.org/2000/svg" xmlns:xlink="http://www.w3.org/1999/xlink" x="0px" y="0px"
	 viewBox="0 0 1691 400" style="enable-background:new 0 0 1691 400;" xml:space="preserve">
<style type="text/css">
	.st0{fill-rule:evenodd;clip-rule:evenodd;fill:#FCFCFC;}
</style>
<path class="st0" d="M80,36.4C80,16.3,96.3,0,116.4,0h247.2C383.7,0,400,16.3,400,36.4v7.2c0,20.1-16.3,36.4-36.4,36.4H116.4
	C96.3,80,80,63.7,80,43.6V36.4z M109.9,160h253.6c20.1,0,36.4,16.3,36.4,36.4v7.2c0,20.1-16.3,36.4-36.4,36.4H116.4
	C96.3,240,80,223.7,80,203.6v-14.2c0,0.2,0,0.4,0,0.6c0-16.6-13.4-30-30-30H40c-22.1,0-40-17.9-40-40c0-22.1,17.9-40,40-40
	s40,17.9,40,40v10.6C80.3,146.9,93.6,160,109.9,160z M440,240c-22.1,0-40,17.9-40,40v10.6c0-0.2,0-0.4,0-0.6c0,16.6-13.4,30-30,30h0
	H76.4C56.3,320,40,336.3,40,356.4v7.2c0,20.1,16.3,36.4,36.4,36.4h287.2c20.1,0,36.4-16.3,36.4-36.4v-14.2
	c0.3-16.3,13.6-29.4,30-29.4h10c22.1,0,40-17.9,40-40S462.1,240,440,240z"/>
<path class="st0" d="M1235.2,323c-11.4-6.8-20.5-15.9-27.3-27.4c-6.8-11.4-10.2-23.9-10.2-37.6v-62.6c0-13.6,3.4-26.2,10.2-37.8
	c6.8-11.5,15.9-20.6,27.3-27.4c11.4-6.7,23.9-10,37.5-10h27.9c2.7,0,5.4,0.8,7.6,2.3l31.2,21v-104c0-1.5,1.2-2.7,2.7-2.7h36.2
	c1.5,0,2.7,1.2,2.7,2.7v290.8c0,1.5-1.2,2.7-2.7,2.7h-36.2c-1.5,0-2.7-1.2-2.7-2.7v-20.6l-31.2,21c-2.2,1.5-4.9,2.3-7.6,2.3h-27.9
	C1259.2,333.2,1246.7,329.8,1235.2,323z M1249.2,281.7c6.5,6.5,14.4,9.8,23.6,9.8h15c2.7,0,5.4-0.8,7.6-2.3l44.1-29.8v-65.1
	l-44.1-29.8c-2.3-1.5-4.9-2.3-7.6-2.3h-14.9c-8.1,0-15.9,2.8-21.9,8.1c-7.7,6.8-11.6,15.3-11.6,25.3v62.6
	C1239.4,267.3,1242.7,275.2,1249.2,281.7L1249.2,281.7z M658.2,303.2c6.1,9.5,14.5,16.9,25.2,22.1l-0.1-0.1
	c10.7,5.3,22.8,7.9,36.1,7.9h37.9c21.1,0,38.2-5.4,51.3-16.3c13-10.8,19.6-25,19.6-42.5c0-16.2-4.4-29.1-13.3-38.8
	c-8.9-9.7-19.3-16.9-31.3-21.5c-12-4.6-27.1-9.1-45.5-13.6c-15.6-3.6-26.9-7-34-10.2c-7.1-3.2-10.7-7.7-10.7-13.6
	c0-5.6,2.1-9.9,6.3-12.9c4.2-3.1,10.4-4.6,18.8-4.6h35.8c7.2,0,13.2,2.2,18,6.7c5.1,4.5,7.1,10.8,7.2,17.5c0,1.7,1.4,3,3.1,3h35.5
	c1.7,0,3.1-1.4,3.1-3.1c0.2-22.8-12.4-44.2-33-54.8c-10.2-5.4-21.5-8.1-33.8-8.1h-35.8c-19.7,0-35.8,5.1-48.2,15.4
	c-12.3,10.3-18.5,23.9-18.5,40.9c0,14.2,3.8,25.6,11.5,34c7.6,8.5,16.8,14.7,27.5,18.8c10.7,4,24.7,8,41.9,11.9
	c12.5,3.1,22.2,5.7,29.2,7.9c6.9,2.2,12.7,5.3,17.5,9.4c4.7,4.1,7.1,9.5,7.1,15.6c0,6.1-2.5,11-7.5,14.6c-5,3.7-12.2,5.4-21.7,5.4
	h-37.9c-8.7,0-15.5-1.9-20.8-6.2s-8-11.1-8-17.9v-4.4c0-1.5-1.2-2.7-2.7-2.7h-36.2c-1.5,0-2.7,1.2-2.7,2.7v5.6
	C649,283.1,652,293.7,658.2,303.2z M1088.5,162.1c9.2,0,17,3.2,23.6,9.8v0.1c6.5,6.6,9.8,14.4,9.8,23.6v135c0,1.5,1.2,2.7,2.7,2.7
	h36.2c1.5,0,2.7-1.2,2.7-2.7v-135c0-13.6-3.4-26.3-10.2-37.8c-6.8-11.6-15.9-20.7-27.3-27.4c-11.4-6.7-23.9-10-37.5-10h-28.1
	c-2.6,0-5.2,0.9-7.2,2.4l-31.3,22.7v-22.3c0-1.5-1.2-2.7-2.7-2.7h-36.2c-1.5,0-2.7,1.2-2.7,2.7v207.3c0,1.5,1.2,2.7,2.7,2.7h36.2
	c1.5,0,2.7-1.2,2.7-2.7V193l44.5-28.9c2-1.3,4.3-2,6.7-2H1088.5z M1462.1,120.4h-36.2v0.1c-1.5,0-2.7,1.2-2.7,2.7v207.3
	c0,1.5,1.2,2.7,2.7,2.7h36.2c1.5,0,2.7-1.2,2.7-2.7V199.3l53.6-35.9c1.8-1.2,3.9-1.2,5-1.2c8.1,0,15.9,3.3,21.1,9.7
	c5.3,6.4,7.9,14.3,7.9,23.7v16.7h41.7v-16.7c0-13.6-3.1-26.3-9.4-37.8c-6.3-11.6-14.8-20.7-25.7-27.4c-10.8-6.7-22.5-10-35-10h-7.2
	c-3.2,0-6.3,0.9-8.9,2.7l-43.1,29.4v-29.4C1464.8,121.6,1463.6,120.4,1462.1,120.4z M882.7,291.5c0.9,0,0.7-0.4,0.4-1.1
	c-0.2-0.4-0.4-1-0.4-1.6V164.9c0-1.5-1.2-2.7-2.7-2.7h-22.8c-1.5,0-2.7-1.2-2.7-2.7v-36.2c0-1.5,1.2-2.7,2.7-2.7h64.5
	c1.5,0,2.7,1.2,2.7,2.7v165.6c0,0.6-0.2,1.1-0.4,1.6c-0.3,0.7-0.5,1.1,0.4,1.1c0.9,0,0.7,0.4,0.4,1.1c-0.2,0.4-0.4,1-0.4,1.6v36.2
	c0,0.6,0.2,1.1,0.4,1.6c0.3,0.7,0.5,1.1-0.4,1.1h-41.7c-0.9,0-0.7-0.4-0.4-1.1c0.2-0.4,0.4-1,0.4-1.6v-36.2c0-0.6-0.2-1.1-0.4-1.6
	C882,292,881.8,291.6,882.7,291.5L882.7,291.5z M924.9,71.6c0,13.6-11,24.5-24.5,24.5c-13.6,0-24.5-11-24.5-24.5s11-24.5,24.5-24.5
	C914,47.1,924.9,58.1,924.9,71.6z M1648.6,291.5c0.9,0,0.7-0.4,0.4-1.1c-0.2-0.4-0.4-1-0.4-1.6V164.9c0-1.5-1.2-2.7-2.7-2.7h-22.8
	c-1.5,0-2.7-1.2-2.7-2.7v-36.2c0-1.5,1.2-2.7,2.7-2.7h64.5c1.5,0,2.7,1.2,2.7,2.7v165.6c0,0.6-0.2,1.1-0.4,1.6
	c-0.3,0.7-0.5,1.1,0.4,1.1c0.9,0,0.7,0.4,0.4,1.1c-0.2,0.4-0.4,1-0.4,1.6v36.2c0,0.6,0.2,1.1,0.4,1.6c0.3,0.7,0.5,1.1-0.4,1.1h-41.7
	c-0.9,0-0.7-0.4-0.4-1.1c0.2-0.4,0.4-1,0.4-1.6v-36.2c0-0.6-0.2-1.1-0.4-1.6C1647.9,292,1647.7,291.6,1648.6,291.5L1648.6,291.5z
	 M1690.7,71.6c0,13.6-11,24.5-24.5,24.5c-13.6,0-24.5-11-24.5-24.5s11-24.5,24.5-24.5C1679.7,47.1,1690.7,58.1,1690.7,71.6z"/>
</svg>
